<?xml version="1.0" encoding="UTF-8" standalone="no"?>
<!DOCTYPE svg PUBLIC "-//W3C//DTD SVG 1.1//EN"
 "http://www.w3.org/Graphics/SVG/1.1/DTD/svg11.dtd">
<!-- Generated by graphviz version 2.40.1 (20161225.0304)
 -->
<!-- Title: tcp Pages: 1 -->
<svg width="1044pt" height="432pt"
 viewBox="0.00 0.00 1044.00 432.00" xmlns="http://www.w3.org/2000/svg" xmlns:xlink="http://www.w3.org/1999/xlink">
<g id="graph0" class="graph" transform="scale(1 1) rotate(0) translate(4 428)">
<title>tcp</title>
<polygon fill="#ffffff" stroke="transparent" points="-4,4 -4,-428 1040,-428 1040,4 -4,4"/>
<g id="clust1" class="cluster">
<title>cluster_local</title>
<polygon fill="none" stroke="#000000" points="157,-8 157,-416 480,-416 480,-8 157,-8"/>
<text text-anchor="middle" x="318.5" y="-400.8" font-family="Times,serif" font-size="14.00" fill="#000000">local</text>
</g>
<g id="clust4" class="cluster">
<title>cluster_server</title>
<polygon fill="none" stroke="#000000" points="555,-59 555,-386 883,-386 883,-59 555,-59"/>
<text text-anchor="middle" x="719" y="-370.8" font-family="Times,serif" font-size="14.00" fill="#000000">server</text>
</g>
<!-- raw_tcp -->
<g id="node1" class="node">
<title>raw_tcp</title>
<polygon fill="none" stroke="#000000" points="236.5,-337 176.5,-337 176.5,-301 236.5,-301 236.5,-337"/>
<text text-anchor="middle" x="206.5" y="-315.3" font-family="Times,serif" font-size="14.00" fill="#000000">raw_tcp</text>
</g>
<!-- ssl_relay_tcp -->
<g id="node2" class="node">
<title>ssl_relay_tcp</title>
<polygon fill="none" stroke="#000000" points="470,-337 382,-337 382,-301 470,-301 470,-337"/>
<text text-anchor="middle" x="426" y="-315.3" font-family="Times,serif" font-size="14.00" fill="#000000">ssl_relay_tcp</text>
</g>
<!-- raw_tcp&#45;&gt;ssl_relay_tcp -->
<g id="edge1" class="edge">
<title>raw_tcp&#45;&gt;ssl_relay_tcp</title>
<path fill="none" stroke="#000000" stroke-dasharray="5,2" d="M236.7624,-328.1033C251.2171,-331.9915 268.849,-336.0732 285,-338 310.5963,-341.0536 317.3852,-340.8944 343,-338 352.4847,-336.9283 362.4652,-335.1884 372.0879,-333.1857"/>
<polygon fill="#000000" stroke="#000000" points="372.9337,-336.5834 381.9505,-331.0204 371.4326,-329.7462 372.9337,-336.5834"/>
<text text-anchor="middle" x="314" y="-343.8" font-family="Times,serif" font-size="14.00" fill="#000000">weak_ptr</text>
</g>
<!-- ssl_relay_tcp&#45;&gt;raw_tcp -->
<g id="edge2" class="edge">
<title>ssl_relay_tcp&#45;&gt;raw_tcp</title>
<path fill="none" stroke="#000000" d="M381.9109,-319C342.4494,-319 285.0785,-319 246.8151,-319"/>
<polygon fill="#000000" stroke="#000000" points="246.5603,-315.5001 236.5603,-319 246.5603,-322.5001 246.5603,-315.5001"/>
<text text-anchor="middle" x="314" y="-322.8" font-family="Times,serif" font-size="14.00" fill="#000000">shared_ptr</text>
</g>
<!-- s_ssl_relay_tcp -->
<g id="node8" class="node">
<title>s_ssl_relay_tcp</title>
<polygon fill="none" stroke="#000000" points="659,-337 571,-337 571,-301 659,-301 659,-337"/>
<text text-anchor="middle" x="615" y="-315.3" font-family="Times,serif" font-size="14.00" fill="#000000">ssl_relay_tcp</text>
</g>
<!-- ssl_relay_tcp&#45;&gt;s_ssl_relay_tcp -->
<g id="edge21" class="edge">
<title>ssl_relay_tcp&#45;&gt;s_ssl_relay_tcp</title>
<path fill="none" stroke="#000000" stroke-dasharray="5,2" d="M480.5879,-319C505.8123,-319 535.6847,-319 560.8543,-319"/>
<polygon fill="#000000" stroke="#000000" points="480.3121,-315.5001 470.3121,-319 480.3121,-322.5001 480.3121,-315.5001"/>
<polygon fill="#000000" stroke="#000000" points="560.9656,-322.5001 570.9655,-319 560.9655,-315.5001 560.9656,-322.5001"/>
<text text-anchor="middle" x="517.5" y="-322.8" font-family="Times,serif" font-size="14.00" fill="#000000">read/write</text>
</g>
<!-- s_relay_server -->
<g id="node10" class="node">
<title>s_relay_server</title>
<polygon fill="none" stroke="#000000" points="656.5,-229 573.5,-229 573.5,-193 656.5,-193 656.5,-229"/>
<text text-anchor="middle" x="615" y="-207.3" font-family="Times,serif" font-size="14.00" fill="#000000">relay_server</text>
</g>
<!-- ssl_relay_tcp&#45;&gt;s_relay_server -->
<g id="edge22" class="edge">
<title>ssl_relay_tcp&#45;&gt;s_relay_server</title>
<path fill="none" stroke="#000000" stroke-dasharray="5,2" d="M457.6344,-300.9232C489.6607,-282.6224 539.3173,-254.2472 574.2681,-234.2754"/>
<polygon fill="#000000" stroke="#000000" points="576.3165,-237.136 583.2624,-229.1357 572.8435,-231.0583 576.3165,-237.136"/>
<text text-anchor="middle" x="517.5" y="-298.8" font-family="Times,serif" font-size="14.00" fill="#000000">connect</text>
<text text-anchor="middle" x="517.5" y="-283.8" font-family="Times,serif" font-size="14.00" fill="#000000">accept</text>
</g>
<!-- relay_server -->
<g id="node3" class="node">
<title>relay_server</title>
<polygon fill="none" stroke="#000000" points="248,-217 165,-217 165,-181 248,-181 248,-217"/>
<text text-anchor="middle" x="206.5" y="-195.3" font-family="Times,serif" font-size="14.00" fill="#000000">relay_server</text>
</g>
<!-- relay_server&#45;&gt;raw_tcp -->
<g id="edge3" class="edge">
<title>relay_server&#45;&gt;raw_tcp</title>
<path fill="none" stroke="#000000" stroke-dasharray="5,2" d="M206.5,-217.2254C206.5,-236.8096 206.5,-268.1816 206.5,-290.9224"/>
<polygon fill="#000000" stroke="#000000" points="203.0001,-290.9962 206.5,-300.9963 210.0001,-290.9963 203.0001,-290.9962"/>
<text text-anchor="middle" x="196" y="-255.3" font-family="Times,serif" font-size="14.00" fill="#000000">create</text>
</g>
<!-- relay_server&#45;&gt;ssl_relay_tcp -->
<g id="edge4" class="edge">
<title>relay_server&#45;&gt;ssl_relay_tcp</title>
<path fill="none" stroke="#000000" stroke-dasharray="5,2" d="M239.8373,-217.2254C278.4967,-238.3604 342.268,-273.224 384.2074,-296.1521"/>
<polygon fill="#000000" stroke="#000000" points="382.6148,-299.2703 393.0681,-300.9963 385.9727,-293.1282 382.6148,-299.2703"/>
<text text-anchor="middle" x="314" y="-291.8" font-family="Times,serif" font-size="14.00" fill="#000000">create</text>
<text text-anchor="middle" x="314" y="-276.8" font-family="Times,serif" font-size="14.00" fill="#000000">weak_ptr</text>
</g>
<!-- ssl_relay_udp -->
<g id="node4" class="node">
<title>ssl_relay_udp</title>
<polygon fill="none" stroke="#000000" points="472,-121 380,-121 380,-85 472,-85 472,-121"/>
<text text-anchor="middle" x="426" y="-99.3" font-family="Times,serif" font-size="14.00" fill="#000000">ssl_relay_udp</text>
</g>
<!-- relay_server&#45;&gt;ssl_relay_udp -->
<g id="edge5" class="edge">
<title>relay_server&#45;&gt;ssl_relay_udp</title>
<path fill="none" stroke="#000000" stroke-dasharray="5,2" d="M247.7863,-180.9431C283.849,-165.1708 336.3324,-142.2168 375.0091,-125.3013"/>
<polygon fill="#000000" stroke="#000000" points="376.7667,-128.3527 384.5263,-121.1388 373.9617,-121.9393 376.7667,-128.3527"/>
<text text-anchor="middle" x="314" y="-182.8" font-family="Times,serif" font-size="14.00" fill="#000000">create</text>
<text text-anchor="middle" x="314" y="-167.8" font-family="Times,serif" font-size="14.00" fill="#000000">weak_ptr</text>
</g>
<!-- raw_udp -->
<g id="node5" class="node">
<title>raw_udp</title>
<polygon fill="none" stroke="#000000" points="238.5,-68 174.5,-68 174.5,-32 238.5,-32 238.5,-68"/>
<text text-anchor="middle" x="206.5" y="-46.3" font-family="Times,serif" font-size="14.00" fill="#000000">raw_udp</text>
</g>
<!-- ssl_relay_udp&#45;&gt;raw_udp -->
<g id="edge7" class="edge">
<title>ssl_relay_udp&#45;&gt;raw_udp</title>
<path fill="none" stroke="#000000" d="M379.6844,-91.8167C341.0683,-82.4926 286.4972,-69.316 248.9877,-60.259"/>
<polygon fill="#000000" stroke="#000000" points="249.4302,-56.7653 238.888,-57.8203 247.7871,-63.5698 249.4302,-56.7653"/>
<text text-anchor="middle" x="314" y="-85.8" font-family="Times,serif" font-size="14.00" fill="#000000">shared_ptr</text>
</g>
<!-- ssl_relay_udp&#45;&gt;raw_udp -->
<g id="edge8" class="edge">
<title>ssl_relay_udp&#45;&gt;raw_udp</title>
<path fill="none" stroke="#000000" stroke-dasharray="5,2" d="M379.925,-108.7081C351.8865,-110.6345 315.684,-110.3294 285,-101 267.1013,-95.5579 249.4275,-84.6986 235.3952,-74.394"/>
<polygon fill="#000000" stroke="#000000" points="237.2307,-71.3918 227.1592,-68.103 232.9815,-76.9546 237.2307,-71.3918"/>
<text text-anchor="middle" x="314" y="-112.8" font-family="Times,serif" font-size="14.00" fill="#000000">create</text>
</g>
<!-- ssl_relay_udp&#45;&gt;s_relay_server -->
<g id="edge23" class="edge">
<title>ssl_relay_udp&#45;&gt;s_relay_server</title>
<path fill="none" stroke="#000000" stroke-dasharray="5,2" d="M457.6344,-121.0768C489.6607,-139.3776 539.3173,-167.7528 574.2681,-187.7246"/>
<polygon fill="#000000" stroke="#000000" points="572.8435,-190.9417 583.2624,-192.8643 576.3165,-184.864 572.8435,-190.9417"/>
<text text-anchor="middle" x="517.5" y="-187.8" font-family="Times,serif" font-size="14.00" fill="#000000">connect</text>
<text text-anchor="middle" x="517.5" y="-172.8" font-family="Times,serif" font-size="14.00" fill="#000000">accept</text>
</g>
<!-- s_ssl_relay_udp -->
<g id="node11" class="node">
<title>s_ssl_relay_udp</title>
<polygon fill="none" stroke="#000000" points="667,-121 563,-121 563,-85 667,-85 667,-121"/>
<text text-anchor="middle" x="615" y="-99.3" font-family="Times,serif" font-size="14.00" fill="#000000">s_ssl_relay_udp</text>
</g>
<!-- ssl_relay_udp&#45;&gt;s_ssl_relay_udp -->
<g id="edge24" class="edge">
<title>ssl_relay_udp&#45;&gt;s_ssl_relay_udp</title>
<path fill="none" stroke="#000000" stroke-dasharray="5,2" d="M482.5011,-103C504.6218,-103 530.0754,-103 552.7238,-103"/>
<polygon fill="#000000" stroke="#000000" points="482.2346,-99.5001 472.2346,-103 482.2346,-106.5001 482.2346,-99.5001"/>
<polygon fill="#000000" stroke="#000000" points="552.9104,-106.5001 562.9104,-103 552.9103,-99.5001 552.9104,-106.5001"/>
<text text-anchor="middle" x="517.5" y="-106.8" font-family="Times,serif" font-size="14.00" fill="#000000">read/write</text>
</g>
<!-- raw_udp&#45;&gt;ssl_relay_udp -->
<g id="edge6" class="edge">
<title>raw_udp&#45;&gt;ssl_relay_udp</title>
<path fill="none" stroke="#000000" stroke-dasharray="5,2" d="M238.7013,-44.133C266.8525,-40.2621 308.5065,-37.6086 343,-48 363.1101,-54.0583 382.8274,-66.7549 397.9949,-78.424"/>
<polygon fill="#000000" stroke="#000000" points="395.927,-81.2516 405.9268,-84.7524 400.2927,-75.7798 395.927,-81.2516"/>
<text text-anchor="middle" x="314" y="-51.8" font-family="Times,serif" font-size="14.00" fill="#000000">weak_ptr</text>
</g>
<!-- tcp_client -->
<g id="node6" class="node">
<title>tcp_client</title>
<polygon fill="none" stroke="#000000" points="72,-241 2,-241 2,-205 72,-205 72,-241"/>
<text text-anchor="middle" x="37" y="-219.3" font-family="Times,serif" font-size="14.00" fill="#000000">tcp_client</text>
</g>
<!-- tcp_client&#45;&gt;raw_tcp -->
<g id="edge10" class="edge">
<title>tcp_client&#45;&gt;raw_tcp</title>
<path fill="none" stroke="#000000" stroke-dasharray="5,2" d="M77.9513,-246.1937C105.246,-261.6526 140.8985,-281.8452 167.7314,-297.0425"/>
<polygon fill="#000000" stroke="#000000" points="79.3079,-242.9396 68.8817,-241.0569 75.8581,-249.0306 79.3079,-242.9396"/>
<polygon fill="#000000" stroke="#000000" points="166.0421,-300.1081 176.4683,-301.9909 169.4918,-294.0172 166.0421,-300.1081"/>
<text text-anchor="middle" x="119.5" y="-288.8" font-family="Times,serif" font-size="14.00" fill="#000000">read/write</text>
</g>
<!-- tcp_client&#45;&gt;relay_server -->
<g id="edge9" class="edge">
<title>tcp_client&#45;&gt;relay_server</title>
<path fill="none" stroke="#000000" stroke-dasharray="5,2" d="M72.1205,-218.0272C96.0239,-214.6426 128.0599,-210.1066 154.8566,-206.3123"/>
<polygon fill="#000000" stroke="#000000" points="155.4318,-209.7659 164.8423,-204.8984 154.4504,-202.835 155.4318,-209.7659"/>
<text text-anchor="middle" x="119.5" y="-232.8" font-family="Times,serif" font-size="14.00" fill="#000000">connect</text>
<text text-anchor="middle" x="119.5" y="-217.8" font-family="Times,serif" font-size="14.00" fill="#000000">accept</text>
</g>
<!-- udp_client -->
<g id="node7" class="node">
<title>udp_client</title>
<polygon fill="none" stroke="#000000" points="74,-176 0,-176 0,-140 74,-140 74,-176"/>
<text text-anchor="middle" x="37" y="-154.3" font-family="Times,serif" font-size="14.00" fill="#000000">udp_client</text>
</g>
<!-- udp_client&#45;&gt;relay_server -->
<g id="edge11" class="edge">
<title>udp_client&#45;&gt;relay_server</title>
<path fill="none" stroke="#000000" stroke-dasharray="5,2" d="M74.1975,-166.9976C97.9608,-172.7457 129.0988,-180.2776 155.1967,-186.5903"/>
<polygon fill="#000000" stroke="#000000" points="154.3837,-189.9946 164.9263,-188.9438 156.0295,-183.1908 154.3837,-189.9946"/>
<text text-anchor="middle" x="119.5" y="-187.8" font-family="Times,serif" font-size="14.00" fill="#000000">send</text>
</g>
<!-- udp_client&#45;&gt;raw_udp -->
<g id="edge12" class="edge">
<title>udp_client&#45;&gt;raw_udp</title>
<path fill="none" stroke="#000000" stroke-dasharray="5,2" d="M73.829,-134.5337C105.1236,-114.5938 149.4033,-86.3802 178.037,-68.1357"/>
<polygon fill="#000000" stroke="#000000" points="71.9233,-131.5979 65.3705,-139.9232 75.6848,-137.5013 71.9233,-131.5979"/>
<text text-anchor="middle" x="119.5" y="-122.8" font-family="Times,serif" font-size="14.00" fill="#000000">send</text>
</g>
<!-- s_raw_tcp -->
<g id="node9" class="node">
<title>s_raw_tcp</title>
<polygon fill="none" stroke="#000000" points="867,-307 807,-307 807,-271 867,-271 867,-307"/>
<text text-anchor="middle" x="837" y="-285.3" font-family="Times,serif" font-size="14.00" fill="#000000">raw_tcp</text>
</g>
<!-- s_ssl_relay_tcp&#45;&gt;s_raw_tcp -->
<g id="edge13" class="edge">
<title>s_ssl_relay_tcp&#45;&gt;s_raw_tcp</title>
<path fill="none" stroke="#000000" stroke-dasharray="5,2" d="M632.0329,-300.6961C648.5962,-284.3535 675.386,-261.5666 704,-252 728.4476,-243.8264 736.8961,-246.1446 762,-252 774.719,-254.9667 787.7597,-260.4168 799.3256,-266.2388"/>
<polygon fill="#000000" stroke="#000000" points="797.7729,-269.3768 808.2507,-270.9473 801.0392,-263.1856 797.7729,-269.3768"/>
<text text-anchor="middle" x="733" y="-255.8" font-family="Times,serif" font-size="14.00" fill="#000000">create</text>
</g>
<!-- s_ssl_relay_tcp&#45;&gt;s_raw_tcp -->
<g id="edge14" class="edge">
<title>s_ssl_relay_tcp&#45;&gt;s_raw_tcp</title>
<path fill="none" stroke="#000000" d="M659.2618,-310.3855C673.5098,-307.7889 689.3901,-305.0794 704,-303 735.0475,-298.5811 770.3573,-294.9279 796.7885,-292.4625"/>
<polygon fill="#000000" stroke="#000000" points="797.175,-295.9418 806.8142,-291.5444 796.5366,-288.971 797.175,-295.9418"/>
<text text-anchor="middle" x="733" y="-306.8" font-family="Times,serif" font-size="14.00" fill="#000000">shared_ptr</text>
</g>
<!-- s_raw_tcp&#45;&gt;s_ssl_relay_tcp -->
<g id="edge15" class="edge">
<title>s_raw_tcp&#45;&gt;s_ssl_relay_tcp</title>
<path fill="none" stroke="#000000" stroke-dasharray="5,2" d="M806.7248,-303.5861C793.3454,-309.2692 777.2233,-315.1057 762,-318 731.7644,-323.7485 697.3947,-324.303 669.4952,-323.2814"/>
<polygon fill="#000000" stroke="#000000" points="669.2873,-319.7687 659.1414,-322.8202 668.9757,-326.7618 669.2873,-319.7687"/>
<text text-anchor="middle" x="733" y="-326.8" font-family="Times,serif" font-size="14.00" fill="#000000">weak_ptr</text>
</g>
<!-- tcp_remote -->
<g id="node13" class="node">
<title>tcp_remote</title>
<polygon fill="none" stroke="#000000" points="1034,-307 956,-307 956,-271 1034,-271 1034,-307"/>
<text text-anchor="middle" x="995" y="-285.3" font-family="Times,serif" font-size="14.00" fill="#000000">tcp_remote</text>
</g>
<!-- s_raw_tcp&#45;&gt;tcp_remote -->
<g id="edge25" class="edge">
<title>s_raw_tcp&#45;&gt;tcp_remote</title>
<path fill="none" stroke="#000000" stroke-dasharray="5,2" d="M867.0905,-289C889.2034,-289 919.745,-289 945.4387,-289"/>
<polygon fill="#000000" stroke="#000000" points="945.748,-292.5001 955.748,-289 945.7479,-285.5001 945.748,-292.5001"/>
<text text-anchor="middle" x="914.5" y="-307.8" font-family="Times,serif" font-size="14.00" fill="#000000">connect</text>
<text text-anchor="middle" x="914.5" y="-292.8" font-family="Times,serif" font-size="14.00" fill="#000000">accept</text>
</g>
<!-- s_relay_server&#45;&gt;s_ssl_relay_tcp -->
<g id="edge16" class="edge">
<title>s_relay_server&#45;&gt;s_ssl_relay_tcp</title>
<path fill="none" stroke="#000000" stroke-dasharray="5,2" d="M615,-229.3207C615,-246.179 615,-271.4349 615,-290.853"/>
<polygon fill="#000000" stroke="#000000" points="611.5001,-290.9498 615,-300.9498 618.5001,-290.9499 611.5001,-290.9498"/>
<text text-anchor="middle" x="597" y="-268.8" font-family="Times,serif" font-size="14.00" fill="#000000">create</text>
<text text-anchor="middle" x="597" y="-253.8" font-family="Times,serif" font-size="14.00" fill="#000000">weak_ptr</text>
</g>
<!-- s_relay_server&#45;&gt;s_ssl_relay_udp -->
<g id="edge20" class="edge">
<title>s_relay_server&#45;&gt;s_ssl_relay_udp</title>
<path fill="none" stroke="#000000" stroke-dasharray="5,2" d="M615,-192.9498C615,-176.182 615,-150.9403 615,-131.46"/>
<polygon fill="#000000" stroke="#000000" points="618.5001,-131.3207 615,-121.3207 611.5001,-131.3208 618.5001,-131.3207"/>
<text text-anchor="middle" x="597" y="-160.8" font-family="Times,serif" font-size="14.00" fill="#000000">create</text>
<text text-anchor="middle" x="597" y="-145.8" font-family="Times,serif" font-size="14.00" fill="#000000">weak_ptr</text>
</g>
<!-- s_raw_udp -->
<g id="node12" class="node">
<title>s_raw_udp</title>
<polygon fill="none" stroke="#000000" points="875,-154 799,-154 799,-118 875,-118 875,-154"/>
<text text-anchor="middle" x="837" y="-132.3" font-family="Times,serif" font-size="14.00" fill="#000000">s_raw_udp</text>
</g>
<!-- s_ssl_relay_udp&#45;&gt;s_raw_udp -->
<g id="edge17" class="edge">
<title>s_ssl_relay_udp&#45;&gt;s_raw_udp</title>
<path fill="none" stroke="#000000" stroke-dasharray="5,2" d="M667.0112,-95.2028C695.4316,-92.5286 731.0457,-91.78 762,-99 774.719,-101.9667 787.7597,-107.4168 799.3256,-113.2388"/>
<polygon fill="#000000" stroke="#000000" points="797.7729,-116.3768 808.2507,-117.9473 801.0392,-110.1856 797.7729,-116.3768"/>
<text text-anchor="middle" x="733" y="-102.8" font-family="Times,serif" font-size="14.00" fill="#000000">create</text>
</g>
<!-- s_ssl_relay_udp&#45;&gt;s_raw_udp -->
<g id="edge18" class="edge">
<title>s_ssl_relay_udp&#45;&gt;s_raw_udp</title>
<path fill="none" stroke="#000000" d="M667.0491,-110.737C703.7917,-116.1988 752.6745,-123.4651 788.5806,-128.8025"/>
<polygon fill="#000000" stroke="#000000" points="788.4042,-132.3147 798.8102,-130.3231 789.4335,-125.3908 788.4042,-132.3147"/>
<text text-anchor="middle" x="733" y="-127.8" font-family="Times,serif" font-size="14.00" fill="#000000">shared_ptr</text>
</g>
<!-- s_raw_udp&#45;&gt;s_ssl_relay_udp -->
<g id="edge19" class="edge">
<title>s_raw_udp&#45;&gt;s_ssl_relay_udp</title>
<path fill="none" stroke="#000000" stroke-dasharray="5,2" d="M798.7436,-143.2718C771.9356,-147.0947 735.4258,-149.7374 704,-143 687.5591,-139.4752 670.4878,-132.6705 655.7466,-125.6591"/>
<polygon fill="#000000" stroke="#000000" points="656.9419,-122.3458 646.426,-121.0542 653.8412,-128.6217 656.9419,-122.3458"/>
<text text-anchor="middle" x="733" y="-150.8" font-family="Times,serif" font-size="14.00" fill="#000000">weak_ptr</text>
</g>
<!-- udp_remote -->
<g id="node14" class="node">
<title>udp_remote</title>
<polygon fill="none" stroke="#000000" points="1036,-154 954,-154 954,-118 1036,-118 1036,-154"/>
<text text-anchor="middle" x="995" y="-132.3" font-family="Times,serif" font-size="14.00" fill="#000000">udp_remote</text>
</g>
<!-- s_raw_udp&#45;&gt;udp_remote -->
<g id="edge26" class="edge">
<title>s_raw_udp&#45;&gt;udp_remote</title>
<path fill="none" stroke="#000000" stroke-dasharray="5,2" d="M885.3329,-136C903.7994,-136 924.9123,-136 943.6502,-136"/>
<polygon fill="#000000" stroke="#000000" points="885.2474,-132.5001 875.2474,-136 885.2474,-139.5001 885.2474,-132.5001"/>
<polygon fill="#000000" stroke="#000000" points="943.784,-139.5001 953.7839,-136 943.7839,-132.5001 943.784,-139.5001"/>
<text text-anchor="middle" x="914.5" y="-139.8" font-family="Times,serif" font-size="14.00" fill="#000000">send</text>
</g>
</g>
</svg>
