<?xml version="1.0" encoding="UTF-8" standalone="no"?>
<!DOCTYPE svg PUBLIC "-//W3C//DTD SVG 1.1//EN"
 "http://www.w3.org/Graphics/SVG/1.1/DTD/svg11.dtd">
<!-- Generated by graphviz version 2.40.1 (20161225.0304)
 -->
<!-- Title: modules Pages: 1 -->
<svg width="603pt" height="373pt"
 viewBox="0.00 0.00 603.10 373.00" xmlns="http://www.w3.org/2000/svg" xmlns:xlink="http://www.w3.org/1999/xlink">
<g id="graph0" class="graph" transform="scale(1 1) rotate(0) translate(4 369)">
<title>modules</title>
<polygon fill="#ffffff" stroke="transparent" points="-4,4 -4,-369 599.0957,-369 599.0957,4 -4,4"/>
<g id="clust1" class="cluster">
<title>cluster_local</title>
<polygon fill="none" stroke="#000000" points="130.0957,-8 130.0957,-284 587.0957,-284 587.0957,-8 130.0957,-8"/>
<text text-anchor="middle" x="358.5957" y="-268.8" font-family="Times,serif" font-size="14.00" fill="#000000">local</text>
</g>
<g id="clust2" class="cluster">
<title>cluster_server</title>
<polygon fill="none" stroke="#000000" points="8,-228 8,-357 98,-357 98,-228 8,-228"/>
<text text-anchor="middle" x="53" y="-341.8" font-family="Times,serif" font-size="14.00" fill="#000000">server</text>
</g>
<!-- req -->
<g id="node1" class="node">
<title>req</title>
<path fill="none" stroke="#000000" d="M427.5957,-208.4778C427.5957,-211.1113 411.0117,-213.2506 390.5957,-213.2506 370.1797,-213.2506 353.5957,-211.1113 353.5957,-208.4778 353.5957,-208.4778 353.5957,-165.5222 353.5957,-165.5222 353.5957,-162.8887 370.1797,-160.7494 390.5957,-160.7494 411.0117,-160.7494 427.5957,-162.8887 427.5957,-165.5222 427.5957,-165.5222 427.5957,-208.4778 427.5957,-208.4778"/>
<path fill="none" stroke="#000000" d="M427.5957,-208.4778C427.5957,-205.8442 411.0117,-203.7049 390.5957,-203.7049 370.1797,-203.7049 353.5957,-205.8442 353.5957,-208.4778"/>
<text text-anchor="middle" x="390.5957" y="-190.8" font-family="Times,serif" font-size="14.00" fill="#000000">Req</text>
<text text-anchor="middle" x="390.5957" y="-175.8" font-family="Times,serif" font-size="14.00" fill="#000000">(ssl_relay)</text>
</g>
<!-- ssl_relay -->
<g id="node7" class="node">
<title>ssl_relay</title>
<polygon fill="none" stroke="#000000" points="579.0957,-170 514.0957,-170 514.0957,-134 579.0957,-134 579.0957,-170"/>
<text text-anchor="middle" x="546.5957" y="-148.3" font-family="Times,serif" font-size="14.00" fill="#000000">ssl_relay</text>
</g>
<!-- req&#45;&gt;ssl_relay -->
<g id="edge6" class="edge">
<title>req&#45;&gt;ssl_relay</title>
<path fill="none" stroke="#000000" stroke-dasharray="5,2" d="M427.9616,-178.6166C450.9133,-173.4672 480.3773,-166.8567 504.1999,-161.5119"/>
<polygon fill="#000000" stroke="#000000" points="505.0376,-164.911 514.0288,-159.3067 503.5051,-158.0808 505.0376,-164.911"/>
</g>
<!-- res -->
<g id="node2" class="node">
<title>res</title>
<path fill="none" stroke="#000000" d="M439.0957,-138.4778C439.0957,-141.1113 417.3573,-143.2506 390.5957,-143.2506 363.8342,-143.2506 342.0957,-141.1113 342.0957,-138.4778 342.0957,-138.4778 342.0957,-95.5222 342.0957,-95.5222 342.0957,-92.8887 363.8342,-90.7494 390.5957,-90.7494 417.3573,-90.7494 439.0957,-92.8887 439.0957,-95.5222 439.0957,-95.5222 439.0957,-138.4778 439.0957,-138.4778"/>
<path fill="none" stroke="#000000" d="M439.0957,-138.4778C439.0957,-135.8442 417.3573,-133.7049 390.5957,-133.7049 363.8342,-133.7049 342.0957,-135.8442 342.0957,-138.4778"/>
<text text-anchor="middle" x="390.5957" y="-120.8" font-family="Times,serif" font-size="14.00" fill="#000000">Res</text>
<text text-anchor="middle" x="390.5957" y="-105.8" font-family="Times,serif" font-size="14.00" fill="#000000">(tcp/udp relay)</text>
</g>
<!-- res&#45;&gt;ssl_relay -->
<g id="edge7" class="edge">
<title>res&#45;&gt;ssl_relay</title>
<path fill="none" stroke="#000000" stroke-dasharray="5,2" d="M449.0035,-130.1043C470.9567,-135.0297 495.124,-140.4518 513.9168,-144.6682"/>
<polygon fill="#000000" stroke="#000000" points="449.6237,-126.6565 439.1,-127.8824 448.0912,-133.4867 449.6237,-126.6565"/>
</g>
<!-- tcp_accept -->
<g id="node3" class="node">
<title>tcp_accept</title>
<polygon fill="none" stroke="#000000" points="216.5957,-253 142.5957,-253 142.5957,-217 216.5957,-217 216.5957,-253"/>
<text text-anchor="middle" x="179.5957" y="-231.3" font-family="Times,serif" font-size="14.00" fill="#000000">tcp_accept</text>
</g>
<!-- tcp_accept&#45;&gt;req -->
<g id="edge1" class="edge">
<title>tcp_accept&#45;&gt;req</title>
<path fill="none" stroke="#000000" stroke-dasharray="5,2" d="M216.8326,-226.5291C252.1287,-218.4996 305.2895,-206.4062 343.5114,-197.7111"/>
<polygon fill="#000000" stroke="#000000" points="344.4024,-201.0979 353.3769,-195.4669 342.8496,-194.2723 344.4024,-201.0979"/>
<text text-anchor="middle" x="281.5957" y="-220.8" font-family="Times,serif" font-size="14.00" fill="#000000">start tcp</text>
</g>
<!-- udp_receive -->
<g id="node4" class="node">
<title>udp_receive</title>
<polygon fill="none" stroke="#000000" points="221.0957,-106 138.0957,-106 138.0957,-70 221.0957,-70 221.0957,-106"/>
<text text-anchor="middle" x="179.5957" y="-84.3" font-family="Times,serif" font-size="14.00" fill="#000000">udp_receive</text>
</g>
<!-- udp_receive&#45;&gt;req -->
<g id="edge2" class="edge">
<title>udp_receive&#45;&gt;req</title>
<path fill="none" stroke="#000000" stroke-dasharray="5,2" d="M221.1431,-95.8704C246.2956,-101.6067 278.5361,-110.7224 305.0957,-124 323.5416,-133.2214 325.5111,-139.743 342.0957,-152 344.1051,-153.485 346.1652,-155.0001 348.2488,-156.5265"/>
<polygon fill="#000000" stroke="#000000" points="346.2018,-159.3655 356.3438,-162.43 350.3265,-153.7098 346.2018,-159.3655"/>
<text text-anchor="middle" x="281.5957" y="-127.8" font-family="Times,serif" font-size="14.00" fill="#000000">udp data</text>
</g>
<!-- udp_send -->
<g id="node5" class="node">
<title>udp_send</title>
<polygon fill="none" stroke="#000000" points="213.5957,-52 145.5957,-52 145.5957,-16 213.5957,-16 213.5957,-52"/>
<text text-anchor="middle" x="179.5957" y="-30.3" font-family="Times,serif" font-size="14.00" fill="#000000">udp_send</text>
</g>
<!-- udp_send&#45;&gt;res -->
<g id="edge3" class="edge">
<title>udp_send&#45;&gt;res</title>
<path fill="none" stroke="#000000" stroke-dasharray="5,2" d="M223.8351,-32.9307C248.5854,-33.7868 279.5114,-37.3321 305.0957,-48 328.1587,-57.6166 350.0069,-75.4593 365.8443,-90.591"/>
<polygon fill="#000000" stroke="#000000" points="223.7112,-29.4274 213.6395,-32.7155 223.5634,-36.4259 223.7112,-29.4274"/>
<text text-anchor="middle" x="281.5957" y="-51.8" font-family="Times,serif" font-size="14.00" fill="#000000">udp data</text>
</g>
<!-- tcp_relay -->
<g id="node6" class="node">
<title>tcp_relay</title>
<polygon fill="none" stroke="#000000" points="213.0957,-199 146.0957,-199 146.0957,-163 213.0957,-163 213.0957,-199"/>
<text text-anchor="middle" x="179.5957" y="-177.3" font-family="Times,serif" font-size="14.00" fill="#000000">tcp_relay</text>
</g>
<!-- tcp_relay&#45;&gt;req -->
<g id="edge4" class="edge">
<title>tcp_relay&#45;&gt;req</title>
<path fill="none" stroke="#000000" stroke-dasharray="5,2" d="M213.4965,-181.964C248.679,-182.9645 303.9759,-184.5369 343.4161,-185.6584"/>
<polygon fill="#000000" stroke="#000000" points="343.4884,-189.1618 353.5839,-185.9475 343.6874,-182.1646 343.4884,-189.1618"/>
<text text-anchor="middle" x="281.5957" y="-187.8" font-family="Times,serif" font-size="14.00" fill="#000000">tcp data</text>
</g>
<!-- tcp_relay&#45;&gt;res -->
<g id="edge5" class="edge">
<title>tcp_relay&#45;&gt;res</title>
<path fill="none" stroke="#000000" stroke-dasharray="5,2" d="M223.3025,-167.743C257.8476,-157.2648 306.0436,-142.6462 341.8361,-131.7897"/>
<polygon fill="#000000" stroke="#000000" points="222.0501,-164.4653 213.4965,-170.7173 224.0819,-171.164 222.0501,-164.4653"/>
<text text-anchor="middle" x="281.5957" y="-160.8" font-family="Times,serif" font-size="14.00" fill="#000000">tcp data</text>
</g>
<!-- tcp_client -->
<g id="node8" class="node">
<title>tcp_client</title>
<ellipse fill="none" stroke="#000000" cx="53" cy="-200" rx="45.4919" ry="18"/>
<text text-anchor="middle" x="53" y="-196.3" font-family="Times,serif" font-size="14.00" fill="#000000">tcp_client</text>
</g>
<!-- tcp_client&#45;&gt;tcp_accept -->
<g id="edge8" class="edge">
<title>tcp_client&#45;&gt;tcp_accept</title>
<path fill="none" stroke="#000000" stroke-dasharray="5,2" d="M90.2982,-210.3119C103.5621,-213.9789 118.6695,-218.1557 132.6374,-222.0174"/>
<polygon fill="#000000" stroke="#000000" points="131.993,-225.4705 142.5641,-224.7619 133.8584,-218.7236 131.993,-225.4705"/>
</g>
<!-- tcp_client&#45;&gt;tcp_relay -->
<g id="edge9" class="edge">
<title>tcp_client&#45;&gt;tcp_relay</title>
<path fill="none" stroke="#000000" stroke-dasharray="5,2" d="M106.0357,-192.0402C115.9692,-190.5493 126.2492,-189.0065 135.8615,-187.5638"/>
<polygon fill="#000000" stroke="#000000" points="105.2293,-188.6219 95.8595,-193.5675 106.2683,-195.5444 105.2293,-188.6219"/>
<polygon fill="#000000" stroke="#000000" points="136.6123,-190.9904 145.982,-186.0449 135.5733,-184.0679 136.6123,-190.9904"/>
</g>
<!-- udp_client -->
<g id="node9" class="node">
<title>udp_client</title>
<ellipse fill="none" stroke="#000000" cx="53" cy="-54" rx="48.1917" ry="18"/>
<text text-anchor="middle" x="53" y="-50.3" font-family="Times,serif" font-size="14.00" fill="#000000">udp_client</text>
</g>
<!-- udp_client&#45;&gt;udp_receive -->
<g id="edge10" class="edge">
<title>udp_client&#45;&gt;udp_receive</title>
<path fill="none" stroke="#000000" stroke-dasharray="5,2" d="M92.3617,-64.5714C103.7028,-67.6173 116.2462,-70.9861 128.2017,-74.197"/>
<polygon fill="#000000" stroke="#000000" points="127.5013,-77.6329 138.0669,-76.8465 129.317,-70.8724 127.5013,-77.6329"/>
</g>
<!-- udp_client&#45;&gt;udp_send -->
<g id="edge11" class="edge">
<title>udp_client&#45;&gt;udp_send</title>
<path fill="none" stroke="#000000" stroke-dasharray="5,2" d="M107.7263,-45.3542C120.4892,-43.3378 133.7257,-41.2467 145.3084,-39.4168"/>
<polygon fill="#000000" stroke="#000000" points="106.9642,-41.9311 97.6329,-46.9487 108.0566,-48.8453 106.9642,-41.9311"/>
</g>
<!-- s_req -->
<g id="node10" class="node">
<title>s_req</title>
<path fill="none" stroke="#000000" d="M80,-322.7273C80,-324.5331 67.8982,-326 53,-326 38.1018,-326 26,-324.5331 26,-322.7273 26,-322.7273 26,-293.2727 26,-293.2727 26,-291.4669 38.1018,-290 53,-290 67.8982,-290 80,-291.4669 80,-293.2727 80,-293.2727 80,-322.7273 80,-322.7273"/>
<path fill="none" stroke="#000000" d="M80,-322.7273C80,-320.9214 67.8982,-319.4545 53,-319.4545 38.1018,-319.4545 26,-320.9214 26,-322.7273"/>
<text text-anchor="middle" x="53" y="-304.3" font-family="Times,serif" font-size="14.00" fill="#000000">Req</text>
</g>
<!-- s_res -->
<g id="node11" class="node">
<title>s_res</title>
<polygon fill="none" stroke="#000000" points="90,-272 28,-272 28,-276 16,-276 16,-236 90,-236 90,-272"/>
<polyline fill="none" stroke="#000000" points="16,-272 28,-272 "/>
<text text-anchor="middle" x="53" y="-250.3" font-family="Times,serif" font-size="14.00" fill="#000000">relay table</text>
</g>
</g>
</svg>
