<?xml version="1.0" encoding="UTF-8" standalone="no"?>
<!DOCTYPE svg PUBLIC "-//W3C//DTD SVG 1.1//EN"
 "http://www.w3.org/Graphics/SVG/1.1/DTD/svg11.dtd">
<!-- Generated by graphviz version 2.40.1 (20161225.0304)
 -->
<!-- Title: tcp Pages: 1 -->
<svg width="699pt" height="312pt"
 viewBox="0.00 0.00 699.00 312.00" xmlns="http://www.w3.org/2000/svg" xmlns:xlink="http://www.w3.org/1999/xlink">
<g id="graph0" class="graph" transform="scale(1 1) rotate(0) translate(4 308)">
<title>tcp</title>
<polygon fill="#ffffff" stroke="transparent" points="-4,4 -4,-308 695,-308 695,4 -4,4"/>
<g id="clust1" class="cluster">
<title>cluster_local2</title>
<polygon fill="none" stroke="#000000" points="89,-8 89,-137 305,-137 305,-8 89,-8"/>
<text text-anchor="middle" x="197" y="-121.8" font-family="Times,serif" font-size="14.00" fill="#000000">local2</text>
</g>
<g id="clust2" class="cluster">
<title>cluster_local1</title>
<polygon fill="none" stroke="#000000" points="89,-167 89,-296 305,-296 305,-167 89,-167"/>
<text text-anchor="middle" x="197" y="-280.8" font-family="Times,serif" font-size="14.00" fill="#000000">local1</text>
</g>
<g id="clust3" class="cluster">
<title>cluster_server</title>
<polygon fill="none" stroke="#000000" points="378,-37 378,-274 594,-274 594,-37 378,-37"/>
<text text-anchor="middle" x="486" y="-258.8" font-family="Times,serif" font-size="14.00" fill="#000000">server</text>
</g>
<!-- raw_tcp_2c -->
<g id="node1" class="node">
<title>raw_tcp_2c</title>
<polygon fill="none" stroke="#000000" points="157,-106 97,-106 97,-70 157,-70 157,-106"/>
<text text-anchor="middle" x="127" y="-84.3" font-family="Times,serif" font-size="14.00" fill="#000000">raw_tcp</text>
</g>
<!-- ssl_relay_2 -->
<g id="node3" class="node">
<title>ssl_relay_2</title>
<polygon fill="none" stroke="#000000" points="297,-95 232,-95 232,-59 297,-59 297,-95"/>
<text text-anchor="middle" x="264.5" y="-73.3" font-family="Times,serif" font-size="14.00" fill="#000000">ssl_relay</text>
</g>
<!-- raw_tcp_2c&#45;&gt;ssl_relay_2 -->
<g id="edge1" class="edge">
<title>raw_tcp_2c&#45;&gt;ssl_relay_2</title>
<path fill="none" stroke="#000000" d="M167.2208,-84.7823C184.2917,-83.4167 204.2152,-81.8228 221.5704,-80.4344"/>
<polygon fill="#000000" stroke="#000000" points="166.864,-81.2996 157.175,-85.586 167.4223,-88.2773 166.864,-81.2996"/>
<polygon fill="#000000" stroke="#000000" points="222.3071,-83.8867 231.9961,-79.6003 221.7488,-76.909 222.3071,-83.8867"/>
</g>
<!-- raw_tcp_2d -->
<g id="node2" class="node">
<title>raw_tcp_2d</title>
<polygon fill="none" stroke="#000000" points="157,-52 97,-52 97,-16 157,-16 157,-52"/>
<text text-anchor="middle" x="127" y="-30.3" font-family="Times,serif" font-size="14.00" fill="#000000">raw_tcp</text>
</g>
<!-- raw_tcp_2d&#45;&gt;ssl_relay_2 -->
<g id="edge2" class="edge">
<title>raw_tcp_2d&#45;&gt;ssl_relay_2</title>
<path fill="none" stroke="#000000" d="M166.9387,-46.4899C184.2172,-51.8934 204.4599,-58.2238 222.0139,-63.7134"/>
<polygon fill="#000000" stroke="#000000" points="167.7638,-43.0809 157.175,-43.4365 165.6745,-49.7618 167.7638,-43.0809"/>
<polygon fill="#000000" stroke="#000000" points="221.4072,-67.1908 231.9961,-66.8351 223.4966,-60.5099 221.4072,-67.1908"/>
</g>
<!-- s_ssl_relay_2 -->
<g id="node14" class="node">
<title>s_ssl_relay_2</title>
<polygon fill="none" stroke="#000000" points="451,-95 386,-95 386,-59 451,-59 451,-95"/>
<text text-anchor="middle" x="418.5" y="-73.3" font-family="Times,serif" font-size="14.00" fill="#000000">ssl_relay</text>
</g>
<!-- ssl_relay_2&#45;&gt;s_ssl_relay_2 -->
<g id="edge14" class="edge">
<title>ssl_relay_2&#45;&gt;s_ssl_relay_2</title>
<path fill="none" stroke="#000000" d="M307.404,-77C328.7561,-77 354.4912,-77 375.8134,-77"/>
<polygon fill="#000000" stroke="#000000" points="307.1595,-73.5001 297.1594,-77 307.1594,-80.5001 307.1595,-73.5001"/>
<polygon fill="#000000" stroke="#000000" points="375.8877,-80.5001 385.8876,-77 375.8876,-73.5001 375.8877,-80.5001"/>
<text text-anchor="middle" x="341.5" y="-95.8" font-family="Times,serif" font-size="14.00" fill="#000000">session2c</text>
<text text-anchor="middle" x="341.5" y="-80.8" font-family="Times,serif" font-size="14.00" fill="#000000">session2d</text>
</g>
<!-- client_c -->
<g id="node4" class="node">
<title>client_c</title>
<polygon fill="none" stroke="#000000" points="59.5,-106 .5,-106 .5,-70 59.5,-70 59.5,-106"/>
<text text-anchor="middle" x="30" y="-84.3" font-family="Times,serif" font-size="14.00" fill="#000000">client_c</text>
</g>
<!-- client_c&#45;&gt;raw_tcp_2c -->
<g id="edge3" class="edge">
<title>client_c&#45;&gt;raw_tcp_2c</title>
<path fill="none" stroke="#000000" d="M69.6448,-88C75.3293,-88 81.1817,-88 86.8753,-88"/>
<polygon fill="#000000" stroke="#000000" points="69.6303,-84.5001 59.6303,-88 69.6302,-91.5001 69.6303,-84.5001"/>
<polygon fill="#000000" stroke="#000000" points="86.8818,-91.5001 96.8818,-88 86.8817,-84.5001 86.8818,-91.5001"/>
</g>
<!-- client_d -->
<g id="node5" class="node">
<title>client_d</title>
<polygon fill="none" stroke="#000000" points="60,-52 0,-52 0,-16 60,-16 60,-52"/>
<text text-anchor="middle" x="30" y="-30.3" font-family="Times,serif" font-size="14.00" fill="#000000">client_d</text>
</g>
<!-- client_d&#45;&gt;raw_tcp_2d -->
<g id="edge4" class="edge">
<title>client_d&#45;&gt;raw_tcp_2d</title>
<path fill="none" stroke="#000000" d="M70.3347,-34C75.7445,-34 81.2939,-34 86.7032,-34"/>
<polygon fill="#000000" stroke="#000000" points="70.1597,-30.5001 60.1597,-34 70.1597,-37.5001 70.1597,-30.5001"/>
<polygon fill="#000000" stroke="#000000" points="86.859,-37.5001 96.859,-34 86.8589,-30.5001 86.859,-37.5001"/>
</g>
<!-- raw_tcp_1a -->
<g id="node6" class="node">
<title>raw_tcp_1a</title>
<polygon fill="none" stroke="#000000" points="157,-265 97,-265 97,-229 157,-229 157,-265"/>
<text text-anchor="middle" x="127" y="-243.3" font-family="Times,serif" font-size="14.00" fill="#000000">raw_tcp</text>
</g>
<!-- ssl_relay_1 -->
<g id="node8" class="node">
<title>ssl_relay_1</title>
<polygon fill="none" stroke="#000000" points="297,-227 232,-227 232,-191 297,-191 297,-227"/>
<text text-anchor="middle" x="264.5" y="-205.3" font-family="Times,serif" font-size="14.00" fill="#000000">ssl_relay</text>
</g>
<!-- raw_tcp_1a&#45;&gt;ssl_relay_1 -->
<g id="edge5" class="edge">
<title>raw_tcp_1a&#45;&gt;ssl_relay_1</title>
<path fill="none" stroke="#000000" d="M166.9387,-235.9624C184.2172,-231.1872 204.4599,-225.5929 222.0139,-220.7416"/>
<polygon fill="#000000" stroke="#000000" points="165.8813,-232.6233 157.175,-238.6607 167.746,-239.3704 165.8813,-232.6233"/>
<polygon fill="#000000" stroke="#000000" points="223.2897,-224.0203 231.9961,-217.9829 221.425,-217.2732 223.2897,-224.0203"/>
</g>
<!-- raw_tcp_1b -->
<g id="node7" class="node">
<title>raw_tcp_1b</title>
<polygon fill="none" stroke="#000000" points="157,-211 97,-211 97,-175 157,-175 157,-211"/>
<text text-anchor="middle" x="127" y="-189.3" font-family="Times,serif" font-size="14.00" fill="#000000">raw_tcp</text>
</g>
<!-- raw_tcp_1b&#45;&gt;ssl_relay_1 -->
<g id="edge6" class="edge">
<title>raw_tcp_1b&#45;&gt;ssl_relay_1</title>
<path fill="none" stroke="#000000" d="M167.2208,-197.6802C184.4527,-199.6854 204.5914,-202.0288 222.0609,-204.0616"/>
<polygon fill="#000000" stroke="#000000" points="167.5125,-194.1907 157.175,-196.5113 166.7034,-201.1437 167.5125,-194.1907"/>
<polygon fill="#000000" stroke="#000000" points="221.6585,-207.5383 231.9961,-205.2177 222.4677,-200.5853 221.6585,-207.5383"/>
</g>
<!-- s_ssl_relay_1 -->
<g id="node11" class="node">
<title>s_ssl_relay_1</title>
<polygon fill="none" stroke="#000000" points="451,-227 386,-227 386,-191 451,-191 451,-227"/>
<text text-anchor="middle" x="418.5" y="-205.3" font-family="Times,serif" font-size="14.00" fill="#000000">ssl_relay</text>
</g>
<!-- ssl_relay_1&#45;&gt;s_ssl_relay_1 -->
<g id="edge13" class="edge">
<title>ssl_relay_1&#45;&gt;s_ssl_relay_1</title>
<path fill="none" stroke="#000000" d="M307.404,-209C328.7561,-209 354.4912,-209 375.8134,-209"/>
<polygon fill="#000000" stroke="#000000" points="307.1595,-205.5001 297.1594,-209 307.1594,-212.5001 307.1595,-205.5001"/>
<polygon fill="#000000" stroke="#000000" points="375.8877,-212.5001 385.8876,-209 375.8876,-205.5001 375.8877,-212.5001"/>
<text text-anchor="middle" x="341.5" y="-227.8" font-family="Times,serif" font-size="14.00" fill="#000000">session1a</text>
<text text-anchor="middle" x="341.5" y="-212.8" font-family="Times,serif" font-size="14.00" fill="#000000">session1b</text>
</g>
<!-- client_a -->
<g id="node9" class="node">
<title>client_a</title>
<polygon fill="none" stroke="#000000" points="59.5,-265 .5,-265 .5,-229 59.5,-229 59.5,-265"/>
<text text-anchor="middle" x="30" y="-243.3" font-family="Times,serif" font-size="14.00" fill="#000000">client_a</text>
</g>
<!-- client_a&#45;&gt;raw_tcp_1a -->
<g id="edge7" class="edge">
<title>client_a&#45;&gt;raw_tcp_1a</title>
<path fill="none" stroke="#000000" d="M69.6448,-247C75.3293,-247 81.1817,-247 86.8753,-247"/>
<polygon fill="#000000" stroke="#000000" points="69.6303,-243.5001 59.6303,-247 69.6302,-250.5001 69.6303,-243.5001"/>
<polygon fill="#000000" stroke="#000000" points="86.8818,-250.5001 96.8818,-247 86.8817,-243.5001 86.8818,-250.5001"/>
</g>
<!-- client_b -->
<g id="node10" class="node">
<title>client_b</title>
<polygon fill="none" stroke="#000000" points="60,-211 0,-211 0,-175 60,-175 60,-211"/>
<text text-anchor="middle" x="30" y="-189.3" font-family="Times,serif" font-size="14.00" fill="#000000">client_b</text>
</g>
<!-- client_b&#45;&gt;raw_tcp_1b -->
<g id="edge8" class="edge">
<title>client_b&#45;&gt;raw_tcp_1b</title>
<path fill="none" stroke="#000000" d="M70.3347,-193C75.7445,-193 81.2939,-193 86.7032,-193"/>
<polygon fill="#000000" stroke="#000000" points="70.1597,-189.5001 60.1597,-193 70.1597,-196.5001 70.1597,-189.5001"/>
<polygon fill="#000000" stroke="#000000" points="86.859,-196.5001 96.859,-193 86.8589,-189.5001 86.859,-196.5001"/>
</g>
<!-- s_raw_tcp_1a -->
<g id="node12" class="node">
<title>s_raw_tcp_1a</title>
<polygon fill="none" stroke="#000000" points="586,-243 526,-243 526,-207 586,-207 586,-243"/>
<text text-anchor="middle" x="556" y="-221.3" font-family="Times,serif" font-size="14.00" fill="#000000">raw_tcp</text>
</g>
<!-- s_ssl_relay_1&#45;&gt;s_raw_tcp_1a -->
<g id="edge9" class="edge">
<title>s_ssl_relay_1&#45;&gt;s_raw_tcp_1a</title>
<path fill="none" stroke="#000000" d="M461.0617,-213.9526C478.4837,-215.9799 498.5437,-218.3142 515.7228,-220.3132"/>
<polygon fill="#000000" stroke="#000000" points="461.4231,-210.4712 451.0856,-212.7918 460.614,-217.4242 461.4231,-210.4712"/>
<polygon fill="#000000" stroke="#000000" points="515.6601,-223.8294 525.9976,-221.5088 516.4692,-216.8763 515.6601,-223.8294"/>
</g>
<!-- s_raw_tcp_1b -->
<g id="node13" class="node">
<title>s_raw_tcp_1b</title>
<polygon fill="none" stroke="#000000" points="586,-189 526,-189 526,-153 586,-153 586,-189"/>
<text text-anchor="middle" x="556" y="-167.3" font-family="Times,serif" font-size="14.00" fill="#000000">raw_tcp</text>
</g>
<!-- s_ssl_relay_1&#45;&gt;s_raw_tcp_1b -->
<g id="edge10" class="edge">
<title>s_ssl_relay_1&#45;&gt;s_raw_tcp_1b</title>
<path fill="none" stroke="#000000" d="M460.775,-197.3167C478.4118,-192.4426 498.7922,-186.8101 516.162,-182.0098"/>
<polygon fill="#000000" stroke="#000000" points="459.7919,-193.9571 451.0856,-199.9945 461.6566,-200.7042 459.7919,-193.9571"/>
<polygon fill="#000000" stroke="#000000" points="517.2913,-185.329 525.9976,-179.2916 515.4266,-178.5819 517.2913,-185.329"/>
</g>
<!-- remote1a -->
<g id="node17" class="node">
<title>remote1a</title>
<polygon fill="none" stroke="#000000" points="691,-243 623,-243 623,-207 691,-207 691,-243"/>
<text text-anchor="middle" x="657" y="-221.3" font-family="Times,serif" font-size="14.00" fill="#000000">remote1a</text>
</g>
<!-- s_raw_tcp_1a&#45;&gt;remote1a -->
<g id="edge15" class="edge">
<title>s_raw_tcp_1a&#45;&gt;remote1a</title>
<path fill="none" stroke="#000000" d="M596.0821,-225C601.4404,-225 606.9623,-225 612.392,-225"/>
<polygon fill="#000000" stroke="#000000" points="596.0299,-221.5001 586.0299,-225 596.0298,-228.5001 596.0299,-221.5001"/>
<polygon fill="#000000" stroke="#000000" points="612.653,-228.5001 622.653,-225 612.6529,-221.5001 612.653,-228.5001"/>
</g>
<!-- remote1b -->
<g id="node18" class="node">
<title>remote1b</title>
<polygon fill="none" stroke="#000000" points="691,-189 623,-189 623,-153 691,-153 691,-189"/>
<text text-anchor="middle" x="657" y="-167.3" font-family="Times,serif" font-size="14.00" fill="#000000">remote1b</text>
</g>
<!-- s_raw_tcp_1b&#45;&gt;remote1b -->
<g id="edge16" class="edge">
<title>s_raw_tcp_1b&#45;&gt;remote1b</title>
<path fill="none" stroke="#000000" d="M596.0821,-171C601.4404,-171 606.9623,-171 612.392,-171"/>
<polygon fill="#000000" stroke="#000000" points="596.0299,-167.5001 586.0299,-171 596.0298,-174.5001 596.0299,-167.5001"/>
<polygon fill="#000000" stroke="#000000" points="612.653,-174.5001 622.653,-171 612.6529,-167.5001 612.653,-174.5001"/>
</g>
<!-- s_raw_tcp_2c -->
<g id="node15" class="node">
<title>s_raw_tcp_2c</title>
<polygon fill="none" stroke="#000000" points="586,-135 526,-135 526,-99 586,-99 586,-135"/>
<text text-anchor="middle" x="556" y="-113.3" font-family="Times,serif" font-size="14.00" fill="#000000">raw_tcp</text>
</g>
<!-- s_ssl_relay_2&#45;&gt;s_raw_tcp_2c -->
<g id="edge11" class="edge">
<title>s_ssl_relay_2&#45;&gt;s_raw_tcp_2c</title>
<path fill="none" stroke="#000000" d="M460.775,-89.2982C478.4118,-94.4289 498.7922,-100.3577 516.162,-105.4108"/>
<polygon fill="#000000" stroke="#000000" points="461.6652,-85.9121 451.0856,-86.4794 459.7099,-92.6335 461.6652,-85.9121"/>
<polygon fill="#000000" stroke="#000000" points="515.418,-108.8393 525.9976,-108.272 517.3733,-102.118 515.418,-108.8393"/>
</g>
<!-- s_raw_tcp_2d -->
<g id="node16" class="node">
<title>s_raw_tcp_2d</title>
<polygon fill="none" stroke="#000000" points="586,-81 526,-81 526,-45 586,-45 586,-81"/>
<text text-anchor="middle" x="556" y="-59.3" font-family="Times,serif" font-size="14.00" fill="#000000">raw_tcp</text>
</g>
<!-- s_ssl_relay_2&#45;&gt;s_raw_tcp_2d -->
<g id="edge12" class="edge">
<title>s_ssl_relay_2&#45;&gt;s_raw_tcp_2d</title>
<path fill="none" stroke="#000000" d="M461.0617,-72.6664C478.4837,-70.8926 498.5437,-68.8501 515.7228,-67.101"/>
<polygon fill="#000000" stroke="#000000" points="460.6796,-69.1872 451.0856,-73.6822 461.3887,-76.1512 460.6796,-69.1872"/>
<polygon fill="#000000" stroke="#000000" points="516.4036,-70.5498 525.9976,-66.0548 515.6945,-63.5858 516.4036,-70.5498"/>
</g>
<!-- remote2c -->
<g id="node19" class="node">
<title>remote2c</title>
<polygon fill="none" stroke="#000000" points="691,-135 623,-135 623,-99 691,-99 691,-135"/>
<text text-anchor="middle" x="657" y="-113.3" font-family="Times,serif" font-size="14.00" fill="#000000">remote2c</text>
</g>
<!-- s_raw_tcp_2c&#45;&gt;remote2c -->
<g id="edge17" class="edge">
<title>s_raw_tcp_2c&#45;&gt;remote2c</title>
<path fill="none" stroke="#000000" d="M596.0821,-117C601.4404,-117 606.9623,-117 612.392,-117"/>
<polygon fill="#000000" stroke="#000000" points="596.0299,-113.5001 586.0299,-117 596.0298,-120.5001 596.0299,-113.5001"/>
<polygon fill="#000000" stroke="#000000" points="612.653,-120.5001 622.653,-117 612.6529,-113.5001 612.653,-120.5001"/>
</g>
<!-- remote2d -->
<g id="node20" class="node">
<title>remote2d</title>
<polygon fill="none" stroke="#000000" points="691,-81 623,-81 623,-45 691,-45 691,-81"/>
<text text-anchor="middle" x="657" y="-59.3" font-family="Times,serif" font-size="14.00" fill="#000000">remote2d</text>
</g>
<!-- s_raw_tcp_2d&#45;&gt;remote2d -->
<g id="edge18" class="edge">
<title>s_raw_tcp_2d&#45;&gt;remote2d</title>
<path fill="none" stroke="#000000" d="M596.0821,-63C601.4404,-63 606.9623,-63 612.392,-63"/>
<polygon fill="#000000" stroke="#000000" points="596.0299,-59.5001 586.0299,-63 596.0298,-66.5001 596.0299,-59.5001"/>
<polygon fill="#000000" stroke="#000000" points="612.653,-66.5001 622.653,-63 612.6529,-59.5001 612.653,-66.5001"/>
</g>
</g>
</svg>
