<?xml version="1.0" encoding="UTF-8" standalone="no"?>
<!DOCTYPE svg PUBLIC "-//W3C//DTD SVG 1.1//EN"
 "http://www.w3.org/Graphics/SVG/1.1/DTD/svg11.dtd">
<!-- Generated by graphviz version 2.40.1 (20161225.0304)
 -->
<!-- Title: tcp Pages: 1 -->
<svg width="712pt" height="312pt"
 viewBox="0.00 0.00 712.00 312.00" xmlns="http://www.w3.org/2000/svg" xmlns:xlink="http://www.w3.org/1999/xlink">
<g id="graph0" class="graph" transform="scale(1 1) rotate(0) translate(4 308)">
<title>tcp</title>
<polygon fill="#ffffff" stroke="transparent" points="-4,4 -4,-308 708,-308 708,4 -4,4"/>
<g id="clust1" class="cluster">
<title>cluster_local2</title>
<polygon fill="none" stroke="#000000" points="89,-8 89,-137 311.5,-137 311.5,-8 89,-8"/>
<text text-anchor="middle" x="200.25" y="-121.8" font-family="Times,serif" font-size="14.00" fill="#000000">local2</text>
</g>
<g id="clust2" class="cluster">
<title>cluster_local1</title>
<polygon fill="none" stroke="#000000" points="89,-167 89,-296 318,-296 318,-167 89,-167"/>
<text text-anchor="middle" x="203.5" y="-280.8" font-family="Times,serif" font-size="14.00" fill="#000000">local1</text>
</g>
<g id="clust3" class="cluster">
<title>cluster_server</title>
<polygon fill="none" stroke="#000000" points="391,-37 391,-274 607,-274 607,-37 391,-37"/>
<text text-anchor="middle" x="499" y="-258.8" font-family="Times,serif" font-size="14.00" fill="#000000">server</text>
</g>
<!-- raw_tcp_2c -->
<g id="node1" class="node">
<title>raw_tcp_2c</title>
<polygon fill="none" stroke="#000000" points="157,-106 97,-106 97,-70 157,-70 157,-106"/>
<text text-anchor="middle" x="127" y="-84.3" font-family="Times,serif" font-size="14.00" fill="#000000">raw_tcp</text>
</g>
<!-- ssl_relay_2 -->
<g id="node3" class="node">
<title>ssl_relay_2</title>
<polygon fill="none" stroke="#000000" points="303.5,-95 238.5,-95 238.5,-59 303.5,-59 303.5,-95"/>
<text text-anchor="middle" x="271" y="-73.3" font-family="Times,serif" font-size="14.00" fill="#000000">ssl_relay</text>
</g>
<!-- raw_tcp_2c&#45;&gt;ssl_relay_2 -->
<g id="edge1" class="edge">
<title>raw_tcp_2c&#45;&gt;ssl_relay_2</title>
<path fill="none" stroke="#000000" d="M167.4041,-84.9136C186.398,-83.4626 209.0514,-81.7322 228.324,-80.26"/>
<polygon fill="#000000" stroke="#000000" points="166.8915,-81.4424 157.1871,-85.694 167.4247,-88.4221 166.8915,-81.4424"/>
<polygon fill="#000000" stroke="#000000" points="228.6423,-83.7459 238.3467,-79.4944 228.1091,-76.7663 228.6423,-83.7459"/>
</g>
<!-- raw_tcp_2d -->
<g id="node2" class="node">
<title>raw_tcp_2d</title>
<polygon fill="none" stroke="#000000" points="157,-52 97,-52 97,-16 157,-16 157,-52"/>
<text text-anchor="middle" x="127" y="-30.3" font-family="Times,serif" font-size="14.00" fill="#000000">raw_tcp</text>
</g>
<!-- raw_tcp_2d&#45;&gt;ssl_relay_2 -->
<g id="edge2" class="edge">
<title>raw_tcp_2d&#45;&gt;ssl_relay_2</title>
<path fill="none" stroke="#000000" d="M166.797,-45.8838C185.9711,-51.6094 208.9829,-58.481 228.4987,-64.3086"/>
<polygon fill="#000000" stroke="#000000" points="167.7705,-42.5219 157.1871,-43.0142 165.7676,-49.2292 167.7705,-42.5219"/>
<polygon fill="#000000" stroke="#000000" points="227.7633,-67.7417 238.3467,-67.2494 229.7662,-61.0343 227.7633,-67.7417"/>
</g>
<!-- s_ssl_relay_2 -->
<g id="node12" class="node">
<title>s_ssl_relay_2</title>
<polygon fill="none" stroke="#000000" points="464,-95 399,-95 399,-59 464,-59 464,-95"/>
<text text-anchor="middle" x="431.5" y="-73.3" font-family="Times,serif" font-size="14.00" fill="#000000">ssl_relay</text>
</g>
<!-- ssl_relay_2&#45;&gt;s_ssl_relay_2 -->
<g id="edge14" class="edge">
<title>ssl_relay_2&#45;&gt;s_ssl_relay_2</title>
<path fill="none" stroke="#000000" d="M314.0847,-77C337.2284,-77 365.6652,-77 388.7565,-77"/>
<polygon fill="#000000" stroke="#000000" points="313.8669,-73.5001 303.8669,-77 313.8668,-80.5001 313.8669,-73.5001"/>
<polygon fill="#000000" stroke="#000000" points="388.9517,-80.5001 398.9517,-77 388.9517,-73.5001 388.9517,-80.5001"/>
<text text-anchor="middle" x="354.5" y="-95.8" font-family="Times,serif" font-size="14.00" fill="#000000">session2c</text>
<text text-anchor="middle" x="354.5" y="-80.8" font-family="Times,serif" font-size="14.00" fill="#000000">session2d</text>
</g>
<!-- client_c -->
<g id="node4" class="node">
<title>client_c</title>
<polygon fill="none" stroke="#000000" points="59.5,-106 .5,-106 .5,-70 59.5,-70 59.5,-106"/>
<text text-anchor="middle" x="30" y="-84.3" font-family="Times,serif" font-size="14.00" fill="#000000">client_c</text>
</g>
<!-- client_c&#45;&gt;raw_tcp_2c -->
<g id="edge3" class="edge">
<title>client_c&#45;&gt;raw_tcp_2c</title>
<path fill="none" stroke="#000000" d="M69.6448,-88C75.3293,-88 81.1817,-88 86.8753,-88"/>
<polygon fill="#000000" stroke="#000000" points="69.6303,-84.5001 59.6303,-88 69.6302,-91.5001 69.6303,-84.5001"/>
<polygon fill="#000000" stroke="#000000" points="86.8818,-91.5001 96.8818,-88 86.8817,-84.5001 86.8818,-91.5001"/>
</g>
<!-- client_d -->
<g id="node5" class="node">
<title>client_d</title>
<polygon fill="none" stroke="#000000" points="60,-52 0,-52 0,-16 60,-16 60,-52"/>
<text text-anchor="middle" x="30" y="-30.3" font-family="Times,serif" font-size="14.00" fill="#000000">client_d</text>
</g>
<!-- client_d&#45;&gt;raw_tcp_2d -->
<g id="edge4" class="edge">
<title>client_d&#45;&gt;raw_tcp_2d</title>
<path fill="none" stroke="#000000" d="M70.3347,-34C75.7445,-34 81.2939,-34 86.7032,-34"/>
<polygon fill="#000000" stroke="#000000" points="70.1597,-30.5001 60.1597,-34 70.1597,-37.5001 70.1597,-30.5001"/>
<polygon fill="#000000" stroke="#000000" points="86.859,-37.5001 96.859,-34 86.8589,-30.5001 86.859,-37.5001"/>
</g>
<!-- raw_tcp_1a -->
<g id="node6" class="node">
<title>raw_tcp_1a</title>
<polygon fill="none" stroke="#000000" points="157,-265 97,-265 97,-229 157,-229 157,-265"/>
<text text-anchor="middle" x="127" y="-243.3" font-family="Times,serif" font-size="14.00" fill="#000000">raw_tcp</text>
</g>
<!-- ssl_relay_1 -->
<g id="node8" class="node">
<title>ssl_relay_1</title>
<polygon fill="none" stroke="#000000" points="310,-227 232,-227 232,-191 310,-191 310,-227"/>
<text text-anchor="middle" x="271" y="-205.3" font-family="Times,serif" font-size="14.00" fill="#000000">ssl_relay_1</text>
</g>
<!-- raw_tcp_1a&#45;&gt;ssl_relay_1 -->
<g id="edge5" class="edge">
<title>raw_tcp_1a&#45;&gt;ssl_relay_1</title>
<path fill="none" stroke="#000000" d="M167.036,-236.435C184.102,-231.9314 204.1742,-226.6346 222.1071,-221.9023"/>
<polygon fill="#000000" stroke="#000000" points="165.9631,-233.0982 157.1871,-239.034 167.7492,-239.8665 165.9631,-233.0982"/>
<polygon fill="#000000" stroke="#000000" points="223.0411,-225.2757 231.8171,-219.3399 221.255,-218.5074 223.0411,-225.2757"/>
</g>
<!-- raw_tcp_1b -->
<g id="node7" class="node">
<title>raw_tcp_1b</title>
<polygon fill="none" stroke="#000000" points="157,-211 97,-211 97,-175 157,-175 157,-211"/>
<text text-anchor="middle" x="127" y="-189.3" font-family="Times,serif" font-size="14.00" fill="#000000">raw_tcp</text>
</g>
<!-- raw_tcp_1b&#45;&gt;ssl_relay_1 -->
<g id="edge6" class="edge">
<title>raw_tcp_1b&#45;&gt;ssl_relay_1</title>
<path fill="none" stroke="#000000" d="M167.3133,-197.4793C184.1761,-199.3529 203.9356,-201.5484 221.6563,-203.5174"/>
<polygon fill="#000000" stroke="#000000" points="167.5125,-193.9799 157.1871,-196.3541 166.7394,-200.9371 167.5125,-193.9799"/>
<polygon fill="#000000" stroke="#000000" points="221.4917,-207.0205 231.8171,-204.6463 222.2648,-200.0633 221.4917,-207.0205"/>
</g>
<!-- s_ssl_relay_1 -->
<g id="node11" class="node">
<title>s_ssl_relay_1</title>
<polygon fill="none" stroke="#000000" points="464,-227 399,-227 399,-191 464,-191 464,-227"/>
<text text-anchor="middle" x="431.5" y="-205.3" font-family="Times,serif" font-size="14.00" fill="#000000">ssl_relay</text>
</g>
<!-- ssl_relay_1&#45;&gt;s_ssl_relay_1 -->
<g id="edge13" class="edge">
<title>ssl_relay_1&#45;&gt;s_ssl_relay_1</title>
<path fill="none" stroke="#000000" d="M320.4852,-209C342.2863,-209 367.6569,-209 388.6371,-209"/>
<polygon fill="#000000" stroke="#000000" points="320.2628,-205.5001 310.2627,-209 320.2627,-212.5001 320.2628,-205.5001"/>
<polygon fill="#000000" stroke="#000000" points="388.8565,-212.5001 398.8565,-209 388.8564,-205.5001 388.8565,-212.5001"/>
<text text-anchor="middle" x="354.5" y="-227.8" font-family="Times,serif" font-size="14.00" fill="#000000">session1a</text>
<text text-anchor="middle" x="354.5" y="-212.8" font-family="Times,serif" font-size="14.00" fill="#000000">session1b</text>
</g>
<!-- client_a -->
<g id="node9" class="node">
<title>client_a</title>
<polygon fill="none" stroke="#000000" points="59.5,-265 .5,-265 .5,-229 59.5,-229 59.5,-265"/>
<text text-anchor="middle" x="30" y="-243.3" font-family="Times,serif" font-size="14.00" fill="#000000">client_a</text>
</g>
<!-- client_a&#45;&gt;raw_tcp_1a -->
<g id="edge7" class="edge">
<title>client_a&#45;&gt;raw_tcp_1a</title>
<path fill="none" stroke="#000000" d="M69.6448,-247C75.3293,-247 81.1817,-247 86.8753,-247"/>
<polygon fill="#000000" stroke="#000000" points="69.6303,-243.5001 59.6303,-247 69.6302,-250.5001 69.6303,-243.5001"/>
<polygon fill="#000000" stroke="#000000" points="86.8818,-250.5001 96.8818,-247 86.8817,-243.5001 86.8818,-250.5001"/>
</g>
<!-- client_b -->
<g id="node10" class="node">
<title>client_b</title>
<polygon fill="none" stroke="#000000" points="60,-211 0,-211 0,-175 60,-175 60,-211"/>
<text text-anchor="middle" x="30" y="-189.3" font-family="Times,serif" font-size="14.00" fill="#000000">client_b</text>
</g>
<!-- client_b&#45;&gt;raw_tcp_1b -->
<g id="edge8" class="edge">
<title>client_b&#45;&gt;raw_tcp_1b</title>
<path fill="none" stroke="#000000" d="M70.3347,-193C75.7445,-193 81.2939,-193 86.7032,-193"/>
<polygon fill="#000000" stroke="#000000" points="70.1597,-189.5001 60.1597,-193 70.1597,-196.5001 70.1597,-189.5001"/>
<polygon fill="#000000" stroke="#000000" points="86.859,-196.5001 96.859,-193 86.8589,-189.5001 86.859,-196.5001"/>
</g>
<!-- s_raw_tcp_1a -->
<g id="node13" class="node">
<title>s_raw_tcp_1a</title>
<polygon fill="none" stroke="#000000" points="599,-243 539,-243 539,-207 599,-207 599,-243"/>
<text text-anchor="middle" x="569" y="-221.3" font-family="Times,serif" font-size="14.00" fill="#000000">raw_tcp</text>
</g>
<!-- s_ssl_relay_1&#45;&gt;s_raw_tcp_1a -->
<g id="edge9" class="edge">
<title>s_ssl_relay_1&#45;&gt;s_raw_tcp_1a</title>
<path fill="none" stroke="#000000" d="M474.0617,-213.9526C491.4837,-215.9799 511.5437,-218.3142 528.7228,-220.3132"/>
<polygon fill="#000000" stroke="#000000" points="474.4231,-210.4712 464.0856,-212.7918 473.614,-217.4242 474.4231,-210.4712"/>
<polygon fill="#000000" stroke="#000000" points="528.6601,-223.8294 538.9976,-221.5088 529.4692,-216.8763 528.6601,-223.8294"/>
</g>
<!-- s_raw_tcp_1b -->
<g id="node14" class="node">
<title>s_raw_tcp_1b</title>
<polygon fill="none" stroke="#000000" points="599,-189 539,-189 539,-153 599,-153 599,-189"/>
<text text-anchor="middle" x="569" y="-167.3" font-family="Times,serif" font-size="14.00" fill="#000000">raw_tcp</text>
</g>
<!-- s_ssl_relay_1&#45;&gt;s_raw_tcp_1b -->
<g id="edge10" class="edge">
<title>s_ssl_relay_1&#45;&gt;s_raw_tcp_1b</title>
<path fill="none" stroke="#000000" d="M473.775,-197.3167C491.4118,-192.4426 511.7922,-186.8101 529.162,-182.0098"/>
<polygon fill="#000000" stroke="#000000" points="472.7919,-193.9571 464.0856,-199.9945 474.6566,-200.7042 472.7919,-193.9571"/>
<polygon fill="#000000" stroke="#000000" points="530.2913,-185.329 538.9976,-179.2916 528.4266,-178.5819 530.2913,-185.329"/>
</g>
<!-- s_raw_tcp_2c -->
<g id="node15" class="node">
<title>s_raw_tcp_2c</title>
<polygon fill="none" stroke="#000000" points="599,-135 539,-135 539,-99 599,-99 599,-135"/>
<text text-anchor="middle" x="569" y="-113.3" font-family="Times,serif" font-size="14.00" fill="#000000">raw_tcp</text>
</g>
<!-- s_ssl_relay_2&#45;&gt;s_raw_tcp_2c -->
<g id="edge11" class="edge">
<title>s_ssl_relay_2&#45;&gt;s_raw_tcp_2c</title>
<path fill="none" stroke="#000000" d="M473.775,-89.2982C491.4118,-94.4289 511.7922,-100.3577 529.162,-105.4108"/>
<polygon fill="#000000" stroke="#000000" points="474.6652,-85.9121 464.0856,-86.4794 472.7099,-92.6335 474.6652,-85.9121"/>
<polygon fill="#000000" stroke="#000000" points="528.418,-108.8393 538.9976,-108.272 530.3733,-102.118 528.418,-108.8393"/>
</g>
<!-- s_raw_tcp_2d -->
<g id="node16" class="node">
<title>s_raw_tcp_2d</title>
<polygon fill="none" stroke="#000000" points="599,-81 539,-81 539,-45 599,-45 599,-81"/>
<text text-anchor="middle" x="569" y="-59.3" font-family="Times,serif" font-size="14.00" fill="#000000">raw_tcp</text>
</g>
<!-- s_ssl_relay_2&#45;&gt;s_raw_tcp_2d -->
<g id="edge12" class="edge">
<title>s_ssl_relay_2&#45;&gt;s_raw_tcp_2d</title>
<path fill="none" stroke="#000000" d="M474.0617,-72.6664C491.4837,-70.8926 511.5437,-68.8501 528.7228,-67.101"/>
<polygon fill="#000000" stroke="#000000" points="473.6796,-69.1872 464.0856,-73.6822 474.3887,-76.1512 473.6796,-69.1872"/>
<polygon fill="#000000" stroke="#000000" points="529.4036,-70.5498 538.9976,-66.0548 528.6945,-63.5858 529.4036,-70.5498"/>
</g>
<!-- remote1a -->
<g id="node17" class="node">
<title>remote1a</title>
<polygon fill="none" stroke="#000000" points="704,-243 636,-243 636,-207 704,-207 704,-243"/>
<text text-anchor="middle" x="670" y="-221.3" font-family="Times,serif" font-size="14.00" fill="#000000">remote1a</text>
</g>
<!-- s_raw_tcp_1a&#45;&gt;remote1a -->
<g id="edge15" class="edge">
<title>s_raw_tcp_1a&#45;&gt;remote1a</title>
<path fill="none" stroke="#000000" d="M609.0821,-225C614.4404,-225 619.9623,-225 625.392,-225"/>
<polygon fill="#000000" stroke="#000000" points="609.0299,-221.5001 599.0299,-225 609.0298,-228.5001 609.0299,-221.5001"/>
<polygon fill="#000000" stroke="#000000" points="625.653,-228.5001 635.653,-225 625.6529,-221.5001 625.653,-228.5001"/>
</g>
<!-- remote1b -->
<g id="node18" class="node">
<title>remote1b</title>
<polygon fill="none" stroke="#000000" points="704,-189 636,-189 636,-153 704,-153 704,-189"/>
<text text-anchor="middle" x="670" y="-167.3" font-family="Times,serif" font-size="14.00" fill="#000000">remote1b</text>
</g>
<!-- s_raw_tcp_1b&#45;&gt;remote1b -->
<g id="edge16" class="edge">
<title>s_raw_tcp_1b&#45;&gt;remote1b</title>
<path fill="none" stroke="#000000" d="M609.0821,-171C614.4404,-171 619.9623,-171 625.392,-171"/>
<polygon fill="#000000" stroke="#000000" points="609.0299,-167.5001 599.0299,-171 609.0298,-174.5001 609.0299,-167.5001"/>
<polygon fill="#000000" stroke="#000000" points="625.653,-174.5001 635.653,-171 625.6529,-167.5001 625.653,-174.5001"/>
</g>
<!-- remote2c -->
<g id="node19" class="node">
<title>remote2c</title>
<polygon fill="none" stroke="#000000" points="704,-135 636,-135 636,-99 704,-99 704,-135"/>
<text text-anchor="middle" x="670" y="-113.3" font-family="Times,serif" font-size="14.00" fill="#000000">remote2c</text>
</g>
<!-- s_raw_tcp_2c&#45;&gt;remote2c -->
<g id="edge17" class="edge">
<title>s_raw_tcp_2c&#45;&gt;remote2c</title>
<path fill="none" stroke="#000000" d="M609.0821,-117C614.4404,-117 619.9623,-117 625.392,-117"/>
<polygon fill="#000000" stroke="#000000" points="609.0299,-113.5001 599.0299,-117 609.0298,-120.5001 609.0299,-113.5001"/>
<polygon fill="#000000" stroke="#000000" points="625.653,-120.5001 635.653,-117 625.6529,-113.5001 625.653,-120.5001"/>
</g>
<!-- remote2d -->
<g id="node20" class="node">
<title>remote2d</title>
<polygon fill="none" stroke="#000000" points="704,-81 636,-81 636,-45 704,-45 704,-81"/>
<text text-anchor="middle" x="670" y="-59.3" font-family="Times,serif" font-size="14.00" fill="#000000">remote2d</text>
</g>
<!-- s_raw_tcp_2d&#45;&gt;remote2d -->
<g id="edge18" class="edge">
<title>s_raw_tcp_2d&#45;&gt;remote2d</title>
<path fill="none" stroke="#000000" d="M609.0821,-63C614.4404,-63 619.9623,-63 625.392,-63"/>
<polygon fill="#000000" stroke="#000000" points="609.0299,-59.5001 599.0299,-63 609.0298,-66.5001 609.0299,-59.5001"/>
<polygon fill="#000000" stroke="#000000" points="625.653,-66.5001 635.653,-63 625.6529,-59.5001 625.653,-66.5001"/>
</g>
</g>
</svg>
