<?xml version="1.0" encoding="UTF-8" standalone="no"?>
<!DOCTYPE svg PUBLIC "-//W3C//DTD SVG 1.1//EN"
 "http://www.w3.org/Graphics/SVG/1.1/DTD/svg11.dtd">
<!-- Generated by graphviz version 2.40.1 (20161225.0304)
 -->
<!-- Title: udp Pages: 1 -->
<svg width="707pt" height="266pt"
 viewBox="0.00 0.00 707.00 266.00" xmlns="http://www.w3.org/2000/svg" xmlns:xlink="http://www.w3.org/1999/xlink">
<g id="graph0" class="graph" transform="scale(1 1) rotate(0) translate(4 262)">
<title>udp</title>
<polygon fill="#ffffff" stroke="transparent" points="-4,4 -4,-262 703,-262 703,4 -4,4"/>
<g id="clust1" class="cluster">
<title>cluster_local2</title>
<polygon fill="none" stroke="#000000" points="89,-34 89,-109 309,-109 309,-34 89,-34"/>
<text text-anchor="middle" x="199" y="-93.8" font-family="Times,serif" font-size="14.00" fill="#000000">local2</text>
</g>
<g id="clust3" class="cluster">
<title>cluster_local1</title>
<polygon fill="none" stroke="#000000" points="89,-154 89,-229 309,-229 309,-154 89,-154"/>
<text text-anchor="middle" x="199" y="-213.8" font-family="Times,serif" font-size="14.00" fill="#000000">local1</text>
</g>
<g id="clust5" class="cluster">
<title>cluster_server</title>
<polygon fill="none" stroke="#000000" points="382,-13 382,-250 602,-250 602,-13 382,-13"/>
<text text-anchor="middle" x="492" y="-234.8" font-family="Times,serif" font-size="14.00" fill="#000000">server</text>
</g>
<!-- raw_udp2 -->
<g id="node1" class="node">
<title>raw_udp2</title>
<polygon fill="none" stroke="#000000" points="161,-78 97,-78 97,-42 161,-42 161,-78"/>
<text text-anchor="middle" x="129" y="-56.3" font-family="Times,serif" font-size="14.00" fill="#000000">raw_udp</text>
</g>
<!-- ssl_relay_2 -->
<g id="node2" class="node">
<title>ssl_relay_2</title>
<polygon fill="none" stroke="#000000" points="301,-78 236,-78 236,-42 301,-42 301,-78"/>
<text text-anchor="middle" x="268.5" y="-56.3" font-family="Times,serif" font-size="14.00" fill="#000000">ssl_relay</text>
</g>
<!-- raw_udp2&#45;&gt;ssl_relay_2 -->
<g id="edge1" class="edge">
<title>raw_udp2&#45;&gt;ssl_relay_2</title>
<path fill="none" stroke="#000000" d="M171.1203,-60C188.2628,-60 208.0612,-60 225.3115,-60"/>
<polygon fill="#000000" stroke="#000000" points="171.0042,-56.5001 161.0041,-60 171.0041,-63.5001 171.0042,-56.5001"/>
<polygon fill="#000000" stroke="#000000" points="225.6764,-63.5001 235.6764,-60 225.6763,-56.5001 225.6764,-63.5001"/>
</g>
<!-- s_ssl_relay_2 -->
<g id="node10" class="node">
<title>s_ssl_relay_2</title>
<polygon fill="none" stroke="#000000" points="455,-78 390,-78 390,-42 455,-42 455,-78"/>
<text text-anchor="middle" x="422.5" y="-56.3" font-family="Times,serif" font-size="14.00" fill="#000000">ssl_relay</text>
</g>
<!-- ssl_relay_2&#45;&gt;s_ssl_relay_2 -->
<g id="edge12" class="edge">
<title>ssl_relay_2&#45;&gt;s_ssl_relay_2</title>
<path fill="none" stroke="#000000" d="M311.404,-60C332.7561,-60 358.4912,-60 379.8134,-60"/>
<polygon fill="#000000" stroke="#000000" points="311.1595,-56.5001 301.1594,-60 311.1594,-63.5001 311.1595,-56.5001"/>
<polygon fill="#000000" stroke="#000000" points="379.8877,-63.5001 389.8876,-60 379.8876,-56.5001 379.8877,-63.5001"/>
<text text-anchor="middle" x="345.5" y="-78.8" font-family="Times,serif" font-size="14.00" fill="#000000">session2c</text>
<text text-anchor="middle" x="345.5" y="-63.8" font-family="Times,serif" font-size="14.00" fill="#000000">session2d</text>
</g>
<!-- client_c -->
<g id="node3" class="node">
<title>client_c</title>
<polygon fill="none" stroke="#000000" points="59.5,-90 .5,-90 .5,-54 59.5,-54 59.5,-90"/>
<text text-anchor="middle" x="30" y="-68.3" font-family="Times,serif" font-size="14.00" fill="#000000">client_c</text>
</g>
<!-- client_c&#45;&gt;raw_udp2 -->
<g id="edge2" class="edge">
<title>client_c&#45;&gt;raw_udp2</title>
<path fill="none" stroke="#000000" d="M69.6582,-67.1929C75.3143,-66.5074 81.149,-65.8001 86.8506,-65.109"/>
<polygon fill="#000000" stroke="#000000" points="69.2094,-63.7216 59.7033,-68.3996 70.0518,-70.6708 69.2094,-63.7216"/>
<polygon fill="#000000" stroke="#000000" points="87.3963,-68.5686 96.9024,-63.8906 86.5539,-61.6194 87.3963,-68.5686"/>
</g>
<!-- client_d -->
<g id="node4" class="node">
<title>client_d</title>
<polygon fill="none" stroke="#000000" points="60,-36 0,-36 0,0 60,0 60,-36"/>
<text text-anchor="middle" x="30" y="-14.3" font-family="Times,serif" font-size="14.00" fill="#000000">client_d</text>
</g>
<!-- client_d&#45;&gt;raw_udp2 -->
<g id="edge3" class="edge">
<title>client_d&#45;&gt;raw_udp2</title>
<path fill="none" stroke="#000000" d="M69.4922,-34.7542C75.4592,-37.2857 81.6288,-39.9031 87.6341,-42.4508"/>
<polygon fill="#000000" stroke="#000000" points="70.814,-31.5131 60.2412,-30.8296 68.0801,-37.9572 70.814,-31.5131"/>
<polygon fill="#000000" stroke="#000000" points="86.3104,-45.6912 96.8832,-46.3747 89.0443,-39.2471 86.3104,-45.6912"/>
</g>
<!-- raw_udp1 -->
<g id="node5" class="node">
<title>raw_udp1</title>
<polygon fill="none" stroke="#000000" points="161,-198 97,-198 97,-162 161,-162 161,-198"/>
<text text-anchor="middle" x="129" y="-176.3" font-family="Times,serif" font-size="14.00" fill="#000000">raw_udp</text>
</g>
<!-- ssl_relay_1 -->
<g id="node6" class="node">
<title>ssl_relay_1</title>
<polygon fill="none" stroke="#000000" points="301,-198 236,-198 236,-162 301,-162 301,-198"/>
<text text-anchor="middle" x="268.5" y="-176.3" font-family="Times,serif" font-size="14.00" fill="#000000">ssl_relay</text>
</g>
<!-- raw_udp1&#45;&gt;ssl_relay_1 -->
<g id="edge4" class="edge">
<title>raw_udp1&#45;&gt;ssl_relay_1</title>
<path fill="none" stroke="#000000" d="M171.1203,-180C188.2628,-180 208.0612,-180 225.3115,-180"/>
<polygon fill="#000000" stroke="#000000" points="171.0042,-176.5001 161.0041,-180 171.0041,-183.5001 171.0042,-176.5001"/>
<polygon fill="#000000" stroke="#000000" points="225.6764,-183.5001 235.6764,-180 225.6763,-176.5001 225.6764,-183.5001"/>
</g>
<!-- s_ssl_relay_1 -->
<g id="node9" class="node">
<title>s_ssl_relay_1</title>
<polygon fill="none" stroke="#000000" points="455,-198 390,-198 390,-162 455,-162 455,-198"/>
<text text-anchor="middle" x="422.5" y="-176.3" font-family="Times,serif" font-size="14.00" fill="#000000">ssl_relay</text>
</g>
<!-- ssl_relay_1&#45;&gt;s_ssl_relay_1 -->
<g id="edge11" class="edge">
<title>ssl_relay_1&#45;&gt;s_ssl_relay_1</title>
<path fill="none" stroke="#000000" d="M311.404,-180C332.7561,-180 358.4912,-180 379.8134,-180"/>
<polygon fill="#000000" stroke="#000000" points="311.1595,-176.5001 301.1594,-180 311.1594,-183.5001 311.1595,-176.5001"/>
<polygon fill="#000000" stroke="#000000" points="379.8877,-183.5001 389.8876,-180 379.8876,-176.5001 379.8877,-183.5001"/>
<text text-anchor="middle" x="345.5" y="-198.8" font-family="Times,serif" font-size="14.00" fill="#000000">session1a</text>
<text text-anchor="middle" x="345.5" y="-183.8" font-family="Times,serif" font-size="14.00" fill="#000000">session1b</text>
</g>
<!-- client_a -->
<g id="node7" class="node">
<title>client_a</title>
<polygon fill="none" stroke="#000000" points="59.5,-211 .5,-211 .5,-175 59.5,-175 59.5,-211"/>
<text text-anchor="middle" x="30" y="-189.3" font-family="Times,serif" font-size="14.00" fill="#000000">client_a</text>
</g>
<!-- client_a&#45;&gt;raw_udp1 -->
<g id="edge5" class="edge">
<title>client_a&#45;&gt;raw_udp1</title>
<path fill="none" stroke="#000000" d="M69.6582,-187.7924C75.3143,-187.0496 81.149,-186.2835 86.8506,-185.5348"/>
<polygon fill="#000000" stroke="#000000" points="69.1624,-184.3273 59.7033,-189.0996 70.0739,-191.2677 69.1624,-184.3273"/>
<polygon fill="#000000" stroke="#000000" points="87.4432,-188.9871 96.9024,-184.2148 86.5318,-182.0467 87.4432,-188.9871"/>
</g>
<!-- client_b -->
<g id="node8" class="node">
<title>client_b</title>
<polygon fill="none" stroke="#000000" points="60,-157 0,-157 0,-121 60,-121 60,-157"/>
<text text-anchor="middle" x="30" y="-135.3" font-family="Times,serif" font-size="14.00" fill="#000000">client_b</text>
</g>
<!-- client_b&#45;&gt;raw_udp1 -->
<g id="edge6" class="edge">
<title>client_b&#45;&gt;raw_udp1</title>
<path fill="none" stroke="#000000" d="M69.4922,-155.3553C75.4592,-157.8265 81.6288,-160.3816 87.6341,-162.8687"/>
<polygon fill="#000000" stroke="#000000" points="70.8195,-152.1168 60.2412,-151.5241 68.141,-158.5841 70.8195,-152.1168"/>
<polygon fill="#000000" stroke="#000000" points="86.3049,-166.1064 96.8832,-166.6991 88.9834,-159.6391 86.3049,-166.1064"/>
</g>
<!-- s_raw_udp_1a -->
<g id="node11" class="node">
<title>s_raw_udp_1a</title>
<polygon fill="none" stroke="#000000" points="594,-219 530,-219 530,-183 594,-183 594,-219"/>
<text text-anchor="middle" x="562" y="-197.3" font-family="Times,serif" font-size="14.00" fill="#000000">raw_udp</text>
</g>
<!-- s_ssl_relay_1&#45;&gt;s_raw_udp_1a -->
<g id="edge7" class="edge">
<title>s_ssl_relay_1&#45;&gt;s_raw_udp_1a</title>
<path fill="none" stroke="#000000" d="M465.1101,-186.4144C482.4068,-189.0182 502.3417,-192.0192 519.6154,-194.6195"/>
<polygon fill="#000000" stroke="#000000" points="465.6162,-182.9513 455.2066,-184.9236 464.5741,-189.8733 465.6162,-182.9513"/>
<polygon fill="#000000" stroke="#000000" points="519.5699,-198.152 529.9795,-196.1797 520.6119,-191.23 519.5699,-198.152"/>
</g>
<!-- s_raw_udp_1b -->
<g id="node12" class="node">
<title>s_raw_udp_1b</title>
<polygon fill="none" stroke="#000000" points="594,-165 530,-165 530,-129 594,-129 594,-165"/>
<text text-anchor="middle" x="562" y="-143.3" font-family="Times,serif" font-size="14.00" fill="#000000">raw_udp</text>
</g>
<!-- s_ssl_relay_1&#45;&gt;s_raw_udp_1b -->
<g id="edge8" class="edge">
<title>s_ssl_relay_1&#45;&gt;s_raw_udp_1b</title>
<path fill="none" stroke="#000000" d="M465.1101,-169.9202C482.57,-165.7899 502.7181,-161.0237 520.1036,-156.911"/>
<polygon fill="#000000" stroke="#000000" points="464.1322,-166.5548 455.2066,-172.263 465.7437,-173.3668 464.1322,-166.5548"/>
<polygon fill="#000000" stroke="#000000" points="521.0538,-160.2829 529.9795,-154.5747 519.4423,-153.4709 521.0538,-160.2829"/>
</g>
<!-- s_raw_udp_2c -->
<g id="node13" class="node">
<title>s_raw_udp_2c</title>
<polygon fill="none" stroke="#000000" points="594,-111 530,-111 530,-75 594,-75 594,-111"/>
<text text-anchor="middle" x="562" y="-89.3" font-family="Times,serif" font-size="14.00" fill="#000000">raw_udp</text>
</g>
<!-- s_ssl_relay_2&#45;&gt;s_raw_udp_2c -->
<g id="edge9" class="edge">
<title>s_ssl_relay_2&#45;&gt;s_raw_udp_2c</title>
<path fill="none" stroke="#000000" d="M465.1101,-70.0798C482.57,-74.2101 502.7181,-78.9763 520.1036,-83.089"/>
<polygon fill="#000000" stroke="#000000" points="465.7437,-66.6332 455.2066,-67.737 464.1322,-73.4452 465.7437,-66.6332"/>
<polygon fill="#000000" stroke="#000000" points="519.4423,-86.5291 529.9795,-85.4253 521.0538,-79.7171 519.4423,-86.5291"/>
</g>
<!-- s_raw_udp_2d -->
<g id="node14" class="node">
<title>s_raw_udp_2d</title>
<polygon fill="none" stroke="#000000" points="594,-57 530,-57 530,-21 594,-21 594,-57"/>
<text text-anchor="middle" x="562" y="-35.3" font-family="Times,serif" font-size="14.00" fill="#000000">raw_udp</text>
</g>
<!-- s_ssl_relay_2&#45;&gt;s_raw_udp_2d -->
<g id="edge10" class="edge">
<title>s_ssl_relay_2&#45;&gt;s_raw_udp_2d</title>
<path fill="none" stroke="#000000" d="M465.1101,-53.5856C482.4068,-50.9818 502.3417,-47.9808 519.6154,-45.3805"/>
<polygon fill="#000000" stroke="#000000" points="464.5741,-50.1267 455.2066,-55.0764 465.6162,-57.0487 464.5741,-50.1267"/>
<polygon fill="#000000" stroke="#000000" points="520.6119,-48.77 529.9795,-43.8203 519.5699,-41.848 520.6119,-48.77"/>
</g>
<!-- remote1a -->
<g id="node15" class="node">
<title>remote1a</title>
<polygon fill="none" stroke="#000000" points="699,-219 631,-219 631,-183 699,-183 699,-219"/>
<text text-anchor="middle" x="665" y="-197.3" font-family="Times,serif" font-size="14.00" fill="#000000">remote1a</text>
</g>
<!-- s_raw_udp_1a&#45;&gt;remote1a -->
<g id="edge13" class="edge">
<title>s_raw_udp_1a&#45;&gt;remote1a</title>
<path fill="none" stroke="#000000" d="M604.1978,-201C609.6034,-201 615.1505,-201 620.5899,-201"/>
<polygon fill="#000000" stroke="#000000" points="604.0253,-197.5001 594.0252,-201 604.0252,-204.5001 604.0253,-197.5001"/>
<polygon fill="#000000" stroke="#000000" points="620.8523,-204.5001 630.8523,-201 620.8522,-197.5001 620.8523,-204.5001"/>
</g>
<!-- remote1b -->
<g id="node16" class="node">
<title>remote1b</title>
<polygon fill="none" stroke="#000000" points="699,-165 631,-165 631,-129 699,-129 699,-165"/>
<text text-anchor="middle" x="665" y="-143.3" font-family="Times,serif" font-size="14.00" fill="#000000">remote1b</text>
</g>
<!-- s_raw_udp_1b&#45;&gt;remote1b -->
<g id="edge14" class="edge">
<title>s_raw_udp_1b&#45;&gt;remote1b</title>
<path fill="none" stroke="#000000" d="M604.1978,-147C609.6034,-147 615.1505,-147 620.5899,-147"/>
<polygon fill="#000000" stroke="#000000" points="604.0253,-143.5001 594.0252,-147 604.0252,-150.5001 604.0253,-143.5001"/>
<polygon fill="#000000" stroke="#000000" points="620.8523,-150.5001 630.8523,-147 620.8522,-143.5001 620.8523,-150.5001"/>
</g>
<!-- remote2c -->
<g id="node17" class="node">
<title>remote2c</title>
<polygon fill="none" stroke="#000000" points="699,-111 631,-111 631,-75 699,-75 699,-111"/>
<text text-anchor="middle" x="665" y="-89.3" font-family="Times,serif" font-size="14.00" fill="#000000">remote2c</text>
</g>
<!-- s_raw_udp_2c&#45;&gt;remote2c -->
<g id="edge15" class="edge">
<title>s_raw_udp_2c&#45;&gt;remote2c</title>
<path fill="none" stroke="#000000" d="M604.1978,-93C609.6034,-93 615.1505,-93 620.5899,-93"/>
<polygon fill="#000000" stroke="#000000" points="604.0253,-89.5001 594.0252,-93 604.0252,-96.5001 604.0253,-89.5001"/>
<polygon fill="#000000" stroke="#000000" points="620.8523,-96.5001 630.8523,-93 620.8522,-89.5001 620.8523,-96.5001"/>
</g>
<!-- remote2d -->
<g id="node18" class="node">
<title>remote2d</title>
<polygon fill="none" stroke="#000000" points="699,-57 631,-57 631,-21 699,-21 699,-57"/>
<text text-anchor="middle" x="665" y="-35.3" font-family="Times,serif" font-size="14.00" fill="#000000">remote2d</text>
</g>
<!-- s_raw_udp_2d&#45;&gt;remote2d -->
<g id="edge16" class="edge">
<title>s_raw_udp_2d&#45;&gt;remote2d</title>
<path fill="none" stroke="#000000" d="M604.1978,-39C609.6034,-39 615.1505,-39 620.5899,-39"/>
<polygon fill="#000000" stroke="#000000" points="604.0253,-35.5001 594.0252,-39 604.0252,-42.5001 604.0253,-35.5001"/>
<polygon fill="#000000" stroke="#000000" points="620.8523,-42.5001 630.8523,-39 620.8522,-35.5001 620.8523,-42.5001"/>
</g>
</g>
</svg>
