<?xml version="1.0" encoding="UTF-8" standalone="no"?>
<!DOCTYPE svg PUBLIC "-//W3C//DTD SVG 1.1//EN"
 "http://www.w3.org/Graphics/SVG/1.1/DTD/svg11.dtd">
<!-- Generated by graphviz version 2.40.1 (20161225.0304)
 -->
<!-- Title: udp Pages: 1 -->
<svg width="482pt" height="710pt"
 viewBox="0.00 0.00 482.00 710.00" xmlns="http://www.w3.org/2000/svg" xmlns:xlink="http://www.w3.org/1999/xlink">
<g id="graph0" class="graph" transform="scale(1 1) rotate(0) translate(4 706)">
<title>udp</title>
<polygon fill="#ffffff" stroke="transparent" points="-4,4 -4,-706 478,-706 478,4 -4,4"/>
<g id="clust1" class="cluster">
<title>cluster_send_data</title>
<polygon fill="none" stroke="#000000" points="8,-119 8,-694 264,-694 264,-119 8,-119"/>
<text text-anchor="middle" x="136" y="-678.8" font-family="Times,serif" font-size="14.00" fill="#000000">send data</text>
</g>
<g id="clust2" class="cluster">
<title>cluster_start_relay</title>
<polygon fill="none" stroke="#000000" points="272,-8 272,-694 466,-694 466,-8 272,-8"/>
<text text-anchor="middle" x="369" y="-678.8" font-family="Times,serif" font-size="14.00" fill="#000000">start relay</text>
</g>
<!-- check_data_sess -->
<g id="node1" class="node">
<title>check_data_sess</title>
<polygon fill="none" stroke="#000000" points="136,-663 15.6807,-645 136,-627 256.3193,-645 136,-663"/>
<text text-anchor="middle" x="136" y="-641.3" font-family="Times,serif" font-size="14.00" fill="#000000">session == data_sess</text>
</g>
<!-- send_raw -->
<g id="node2" class="node">
<title>send_raw</title>
<polygon fill="none" stroke="#000000" points="168,-288 100,-288 100,-252 168,-252 168,-288"/>
<text text-anchor="middle" x="134" y="-266.3" font-family="Times,serif" font-size="14.00" fill="#000000">send_raw</text>
</g>
<!-- check_data_sess&#45;&gt;send_raw -->
<g id="edge1" class="edge">
<title>check_data_sess&#45;&gt;send_raw</title>
<path fill="none" stroke="#000000" d="M114.0754,-630.2087C100.2527,-618.9606 85,-602.1067 85,-582.5 85,-582.5 85,-582.5 85,-332.5 85,-318.2985 92.9321,-305.4072 102.4135,-295.0708"/>
<polygon fill="#000000" stroke="#000000" points="104.884,-297.5501 109.5,-288.0136 99.9445,-292.5901 104.884,-297.5501"/>
<text text-anchor="middle" x="90" y="-453.8" font-family="Times,serif" font-size="14.00" fill="#000000">Y</text>
</g>
<!-- find_dst -->
<g id="node3" class="node">
<title>find_dst</title>
<polygon fill="none" stroke="#000000" points="166.5,-538 105.5,-538 105.5,-502 166.5,-502 166.5,-538"/>
<text text-anchor="middle" x="136" y="-516.3" font-family="Times,serif" font-size="14.00" fill="#000000">find_dst</text>
</g>
<!-- check_data_sess&#45;&gt;find_dst -->
<g id="edge2" class="edge">
<title>check_data_sess&#45;&gt;find_dst</title>
<path fill="none" stroke="#000000" d="M136,-626.8239C136,-606.2723 136,-572.5472 136,-548.4893"/>
<polygon fill="#000000" stroke="#000000" points="139.5001,-548.198 136,-538.198 132.5001,-548.198 139.5001,-548.198"/>
<text text-anchor="middle" x="141" y="-578.8" font-family="Times,serif" font-size="14.00" fill="#000000">N</text>
</g>
<!-- next_data -->
<g id="node5" class="node">
<title>next_data</title>
<polygon fill="none" stroke="#000000" points="195.5,-163 126.5,-163 126.5,-127 195.5,-127 195.5,-163"/>
<text text-anchor="middle" x="161" y="-141.3" font-family="Times,serif" font-size="14.00" fill="#000000">next_data</text>
</g>
<!-- send_raw&#45;&gt;next_data -->
<g id="edge5" class="edge">
<title>send_raw&#45;&gt;next_data</title>
<path fill="none" stroke="#000000" d="M137.926,-251.8239C142.3852,-231.1798 149.7155,-197.2431 154.9164,-173.1648"/>
<polygon fill="#000000" stroke="#000000" points="158.3789,-173.7116 157.0692,-163.198 151.5367,-172.2336 158.3789,-173.7116"/>
</g>
<!-- bind_dst -->
<g id="node4" class="node">
<title>bind_dst</title>
<polygon fill="none" stroke="#000000" points="167.5,-413 104.5,-413 104.5,-377 167.5,-377 167.5,-413"/>
<text text-anchor="middle" x="136" y="-391.3" font-family="Times,serif" font-size="14.00" fill="#000000">bind_dst</text>
</g>
<!-- find_dst&#45;&gt;bind_dst -->
<g id="edge3" class="edge">
<title>find_dst&#45;&gt;bind_dst</title>
<path fill="none" stroke="#000000" d="M136,-501.8239C136,-481.2723 136,-447.5472 136,-423.4893"/>
<polygon fill="#000000" stroke="#000000" points="139.5001,-423.198 136,-413.198 132.5001,-423.198 139.5001,-423.198"/>
</g>
<!-- bind_dst&#45;&gt;send_raw -->
<g id="edge4" class="edge">
<title>bind_dst&#45;&gt;send_raw</title>
<path fill="none" stroke="#000000" d="M135.7092,-376.8239C135.3804,-356.2723 134.8408,-322.5472 134.4558,-298.4893"/>
<polygon fill="#000000" stroke="#000000" points="137.9508,-298.1407 134.2912,-288.198 130.9517,-298.2528 137.9508,-298.1407"/>
</g>
<!-- next_data&#45;&gt;check_data_sess -->
<g id="edge6" class="edge">
<title>next_data&#45;&gt;check_data_sess</title>
<path fill="none" stroke="#000000" d="M172.9347,-163.0559C179.7696,-175.1215 187,-191.6346 187,-207.5 187,-582.5 187,-582.5 187,-582.5 187,-598.4304 176.9308,-612.5436 165.7407,-623.3092"/>
<polygon fill="#000000" stroke="#000000" points="163.1053,-620.967 157.9246,-630.2087 167.7378,-626.2149 163.1053,-620.967"/>
</g>
<!-- check_sess -->
<g id="node6" class="node">
<title>check_sess</title>
<polygon fill="none" stroke="#000000" points="379,-538 299.9049,-520 379,-502 458.0951,-520 379,-538"/>
<text text-anchor="middle" x="379" y="-516.3" font-family="Times,serif" font-size="14.00" fill="#000000">session == 0</text>
</g>
<!-- find_sess -->
<g id="node7" class="node">
<title>find_sess</title>
<polygon fill="none" stroke="#000000" points="365,-413 303.3328,-395 365,-377 426.6672,-395 365,-413"/>
<text text-anchor="middle" x="365" y="-391.3" font-family="Times,serif" font-size="14.00" fill="#000000">find_sess</text>
</g>
<!-- check_sess&#45;&gt;find_sess -->
<g id="edge9" class="edge">
<title>check_sess&#45;&gt;find_sess</title>
<path fill="none" stroke="#000000" d="M377.0238,-502.3557C374.6996,-481.6033 370.8135,-446.9061 368.09,-422.5892"/>
<polygon fill="#000000" stroke="#000000" points="371.5575,-422.1028 366.9661,-412.5546 364.601,-422.882 371.5575,-422.1028"/>
<text text-anchor="middle" x="377" y="-453.8" font-family="Times,serif" font-size="14.00" fill="#000000">Y</text>
</g>
<!-- send -->
<g id="node8" class="node">
<title>send</title>
<polygon fill="none" stroke="#000000" points="412,-52 344,-52 344,-16 412,-16 412,-52"/>
<text text-anchor="middle" x="378" y="-30.3" font-family="Times,serif" font-size="14.00" fill="#000000">send data</text>
</g>
<!-- check_sess&#45;&gt;send -->
<g id="edge8" class="edge">
<title>check_sess&#45;&gt;send</title>
<path fill="none" stroke="#000000" d="M405.8654,-507.9482C424.5053,-497.5531 446,-480.5655 446,-457.5 446,-457.5 446,-457.5 446,-89.5 446,-73.6246 434.7385,-61.4789 421.3813,-52.6564"/>
<polygon fill="#000000" stroke="#000000" points="422.7856,-49.4202 412.3984,-47.3328 419.2168,-55.4421 422.7856,-49.4202"/>
<text text-anchor="middle" x="451" y="-266.3" font-family="Times,serif" font-size="14.00" fill="#000000">N</text>
</g>
<!-- find_sess&#45;&gt;send -->
<g id="edge10" class="edge">
<title>find_sess&#45;&gt;send</title>
<path fill="none" stroke="#000000" d="M348.8818,-381.3453C337.0376,-369.7143 323,-351.8482 323,-332.5 323,-332.5 323,-332.5 323,-89.5 323,-77.4184 329.6569,-67.0258 338.3388,-58.6092"/>
<polygon fill="#000000" stroke="#000000" points="340.7099,-61.1864 346.0063,-52.0104 336.1437,-55.8807 340.7099,-61.1864"/>
<text text-anchor="middle" x="328" y="-203.8" font-family="Times,serif" font-size="14.00" fill="#000000">Y</text>
</g>
<!-- new_sess -->
<g id="node10" class="node">
<title>new_sess</title>
<polygon fill="none" stroke="#000000" points="410,-288 342,-288 342,-252 410,-252 410,-288"/>
<text text-anchor="middle" x="376" y="-266.3" font-family="Times,serif" font-size="14.00" fill="#000000">new_sess</text>
</g>
<!-- find_sess&#45;&gt;new_sess -->
<g id="edge11" class="edge">
<title>find_sess&#45;&gt;new_sess</title>
<path fill="none" stroke="#000000" d="M366.5527,-377.3557C368.3583,-356.8378 371.3634,-322.6885 373.4993,-298.4174"/>
<polygon fill="#000000" stroke="#000000" points="376.9935,-298.6359 374.3837,-288.3676 370.0204,-298.0222 376.9935,-298.6359"/>
<text text-anchor="middle" x="376" y="-328.8" font-family="Times,serif" font-size="14.00" fill="#000000">N</text>
</g>
<!-- recvmsg -->
<g id="node9" class="node">
<title>recvmsg</title>
<polygon fill="none" stroke="#000000" points="410.5,-663 347.5,-663 347.5,-627 410.5,-627 410.5,-663"/>
<text text-anchor="middle" x="379" y="-641.3" font-family="Times,serif" font-size="14.00" fill="#000000">recvmsg</text>
</g>
<!-- send&#45;&gt;recvmsg -->
<g id="edge14" class="edge">
<title>send&#45;&gt;recvmsg</title>
<path fill="none" stroke="#000000" d="M343.9212,-51.6251C336.5359,-56.7309 329.3467,-62.8835 324,-70 318.6808,-77.08 320.0096,-80.3755 318,-89 276.2566,-268.1483 293.2069,-318.0658 291,-502 290.808,-517.9988 285.6019,-522.9381 291,-538 302.6357,-570.466 328.8452,-600.1319 349.6519,-619.9487"/>
<polygon fill="#000000" stroke="#000000" points="347.322,-622.5614 357.036,-626.791 352.0798,-617.4269 347.322,-622.5614"/>
</g>
<!-- recvmsg&#45;&gt;check_sess -->
<g id="edge7" class="edge">
<title>recvmsg&#45;&gt;check_sess</title>
<path fill="none" stroke="#000000" d="M379,-626.8239C379,-606.2723 379,-572.5472 379,-548.4893"/>
<polygon fill="#000000" stroke="#000000" points="382.5001,-548.198 379,-538.198 375.5001,-548.198 382.5001,-548.198"/>
</g>
<!-- send_start -->
<g id="node11" class="node">
<title>send_start</title>
<polygon fill="none" stroke="#000000" points="413.5,-163 342.5,-163 342.5,-127 413.5,-127 413.5,-163"/>
<text text-anchor="middle" x="378" y="-141.3" font-family="Times,serif" font-size="14.00" fill="#000000">send_start</text>
</g>
<!-- new_sess&#45;&gt;send_start -->
<g id="edge12" class="edge">
<title>new_sess&#45;&gt;send_start</title>
<path fill="none" stroke="#000000" d="M376.2908,-251.8239C376.6196,-231.2723 377.1592,-197.5472 377.5442,-173.4893"/>
<polygon fill="#000000" stroke="#000000" points="381.0483,-173.2528 377.7088,-163.198 374.0492,-173.1407 381.0483,-173.2528"/>
</g>
<!-- send_start&#45;&gt;send -->
<g id="edge13" class="edge">
<title>send_start&#45;&gt;send</title>
<path fill="none" stroke="#000000" d="M378,-126.6706C378,-109.2373 378,-82.7482 378,-62.5489"/>
<polygon fill="#000000" stroke="#000000" points="381.5001,-62.3566 378,-52.3566 374.5001,-62.3567 381.5001,-62.3566"/>
</g>
</g>
</svg>
